<?xml version="1.0" encoding="UTF-8"?><!DOCTYPE svg PUBLIC "-//W3C//DTD SVG 1.1//EN" "http://www.w3.org/Graphics/SVG/1.1/DTD/svg11.dtd"><svg xmlns="http://www.w3.org/2000/svg"><symbol id="chevron" viewBox="0 0 16 16"><path d="M4 6l4 4 4-4"/></symbol><symbol id="crosshair" viewBox="0 0 16 16"><path d="M8 14.667A6.667 6.667 0 1 0 8 1.333a6.667 6.667 0 0 0 0 13.334zM14.667 8H12M4 8H1.333M8 4V1.333M8 14.667V12"/></symbol><symbol id="dollar-sign" viewBox="0 0 16 16"><path d="M8 .667v14.666M11.333 3.333h-5a2.333 2.333 0 1 0 0 4.667h3.334a2.333 2.333 0 0 1 0 4.667H4"/></symbol><symbol id="download" viewBox="0 0 16 16"><path d="M14 10v2.667A1.334 1.334 0 0 1 12.667 14H3.333A1.334 1.334 0 0 1 2 12.667V10M4.667 6.667L8 10l3.333-3.333M8 10V2" stroke="#00CBCA" stroke-width="1.4" stroke-linecap="round" stroke-linejoin="round"/></symbol><symbol id="facebook" viewBox="0 0 16 16"><path d="M11.723 9l.444-2.896H9.39V4.225c0-.792.388-1.564 1.633-1.564h1.263V.196S11.139 0 10.043 0C7.754 0 6.259 1.387 6.259 3.897v2.207H3.715V9H6.26v7h3.13V9h2.334z"/></symbol><symbol id="flag" viewBox="0 0 16 16"><path d="M2.667 10s.666-.667 2.666-.667 3.334 1.334 5.334 1.334c2 0 2.666-.667 2.666-.667V2s-.666.667-2.666.667-3.334-1.334-5.334-1.334c-2 0-2.666.667-2.666.667v8zM2.667 14.667V10"/></symbol><symbol id="globe" viewBox="0 0 16 16"><path d="M8 14.667A6.667 6.667 0 1 0 8 1.333a6.667 6.667 0 0 0 0 13.334zM1.333 8h13.334"/><path d="M8 1.333A10.2 10.2 0 0 1 10.667 8 10.2 10.2 0 0 1 8 14.667 10.2 10.2 0 0 1 5.333 8 10.2 10.2 0 0 1 8 1.333z"/></symbol><symbol id="home" viewBox="0 0 16 16"><path d="M2 6l6-4.667L14 6v7.333a1.334 1.334 0 0 1-1.333 1.334H3.333A1.334 1.334 0 0 1 2 13.333V6z"/><path d="M6 14.667V8h4v6.667"/></symbol><symbol id="info" viewBox="0 0 16 16"><path d="M8 14.667A6.667 6.667 0 1 0 8 1.333a6.667 6.667 0 0 0 0 13.334zM8 10.667V8M8 5.333h.007" stroke="#66716E" stroke-width="1.2" stroke-linecap="round" stroke-linejoin="round"/></symbol><symbol id="menu" viewBox="0 0 24 24"><path d="M3 12h18M3.058 5.944h14M3.058 17.944h12"/></symbol><symbol id="plus" viewBox="0 0 24 24"><path d="M12 5v14M5 12h14"/></symbol><symbol id="search" viewBox="0 0 16 16"><path d="M7.333 12.667A5.333 5.333 0 1 0 7.333 2a5.333 5.333 0 0 0 0 10.667zM14 14l-2.9-2.9" stroke="#14464A" stroke-width="1.4" stroke-linecap="round" stroke-linejoin="round"/></symbol><symbol id="share" viewBox="0 0 16 16"><path d="M12 5.333a2 2 0 1 0 0-4 2 2 0 0 0 0 4zM4 10a2 2 0 1 0 0-4 2 2 0 0 0 0 4zM12 14.667a2 2 0 1 0 0-4 2 2 0 0 0 0 4zM5.727 9.007l4.553 2.653M10.273 4.34L5.727 6.993" stroke="#222" stroke-width="1.4" stroke-linecap="round" stroke-linejoin="round"/></symbol><symbol id="shield" viewBox="0 0 16 16"><path d="M8 14.667S13.333 12 13.333 8V3.333L8 1.333l-5.333 2V8C2.667 12 8 14.667 8 14.667z"/></symbol><symbol id="twitter" viewBox="0 0 16 16"><path d="M14.355 4.741c.01.142.01.284.01.427 0 4.335-3.299 9.33-9.33 9.33A9.266 9.266 0 0 1 0 13.024c.264.03.518.041.792.041a6.568 6.568 0 0 0 4.07-1.401 3.285 3.285 0 0 1-3.065-2.274c.203.03.406.05.62.05.294 0 .588-.04.862-.111A3.28 3.28 0 0 1 .65 6.112v-.04c.437.243.945.395 1.483.415A3.277 3.277 0 0 1 .67 3.757c0-.61.162-1.168.447-1.655a9.32 9.32 0 0 0 6.761 3.431 3.702 3.702 0 0 1-.081-.751 3.278 3.278 0 0 1 3.28-3.28c.943 0 1.796.397 2.395 1.036a6.455 6.455 0 0 0 2.081-.792 3.27 3.27 0 0 1-1.441 1.807c.66-.07 1.3-.253 1.888-.507a7.048 7.048 0 0 1-1.645 1.695z"/></symbol><symbol id="whatsapp" viewBox="0 0 16 16"><path d="M12.903 3.034A6.885 6.885 0 0 0 7.997 1a6.946 6.946 0 0 0-6.013 10.406L1 15l3.678-.966a6.917 6.917 0 0 0 3.316.844h.003c3.822 0 7.003-3.112 7.003-6.937 0-1.853-.787-3.594-2.097-4.907zM7.997 13.71a5.756 5.756 0 0 1-2.938-.803l-.209-.125-2.181.572.581-2.128-.138-.219a5.747 5.747 0 0 1-.88-3.069A5.774 5.774 0 0 1 8 2.173c1.54 0 2.988.6 4.075 1.69 1.088 1.091 1.756 2.538 1.753 4.079 0 3.18-2.653 5.768-5.831 5.768zm3.162-4.318c-.171-.088-1.025-.507-1.184-.563-.16-.06-.275-.087-.39.088a9.967 9.967 0 0 1-.55.68c-.1.117-.204.132-.376.045-1.018-.51-1.687-.91-2.359-2.063-.178-.306.178-.284.51-.947.056-.115.028-.215-.016-.303-.044-.087-.39-.94-.535-1.287-.14-.338-.284-.291-.39-.297-.1-.006-.216-.006-.332-.006a.642.642 0 0 0-.462.215c-.16.175-.606.594-.606 1.447 0 .853.622 1.678.706 1.794.088.115 1.222 1.865 2.962 2.618 1.1.476 1.532.516 2.082.435.334-.05 1.025-.419 1.168-.825.144-.406.144-.753.1-.825-.04-.078-.156-.122-.328-.206z"/></symbol></svg>