<svg width="16" height="16" viewBox="0 0 16 16" fill="none" xmlns="http://www.w3.org/2000/svg">
<path d="M12.9031 3.03437C11.5938 1.72187 9.85 1 7.99687 1C4.17187 1 1.05937 4.1125 1.05937 7.9375C1.05937 9.15938 1.37813 10.3531 1.98438 11.4062L1 15L4.67812 14.0344C5.69063 14.5875 6.83125 14.8781 7.99375 14.8781H7.99687C11.8188 14.8781 15 11.7656 15 7.94063C15 6.0875 14.2125 4.34687 12.9031 3.03437ZM7.99687 13.7094C6.95937 13.7094 5.94375 13.4312 5.05937 12.9062L4.85 12.7812L2.66875 13.3531L3.25 11.225L3.1125 11.0063C2.53437 10.0875 2.23125 9.02812 2.23125 7.9375C2.23125 4.75938 4.81875 2.17188 8 2.17188C9.54062 2.17188 10.9875 2.77187 12.075 3.8625C13.1625 4.95312 13.8313 6.4 13.8281 7.94063C13.8281 11.1219 11.175 13.7094 7.99687 13.7094ZM11.1594 9.39062C10.9875 9.30313 10.1344 8.88438 9.975 8.82812C9.81563 8.76875 9.7 8.74062 9.58438 8.91562C9.46875 9.09062 9.1375 9.47813 9.03438 9.59688C8.93438 9.7125 8.83125 9.72812 8.65938 9.64062C7.64062 9.13125 6.97188 8.73125 6.3 7.57812C6.12188 7.27187 6.47812 7.29375 6.80937 6.63125C6.86562 6.51562 6.8375 6.41563 6.79375 6.32812C6.75 6.24062 6.40313 5.3875 6.25938 5.04063C6.11875 4.70312 5.975 4.75 5.86875 4.74375C5.76875 4.7375 5.65312 4.7375 5.5375 4.7375C5.42188 4.7375 5.23438 4.78125 5.075 4.95312C4.91562 5.12813 4.46875 5.54688 4.46875 6.4C4.46875 7.25313 5.09063 8.07813 5.175 8.19375C5.2625 8.30938 6.39687 10.0594 8.1375 10.8125C9.2375 11.2875 9.66875 11.3281 10.2188 11.2469C10.5531 11.1969 11.2437 10.8281 11.3875 10.4219C11.5312 10.0156 11.5312 9.66875 11.4875 9.59688C11.4469 9.51875 11.3313 9.475 11.1594 9.39062Z"/>
</svg>
