<svg data-name="Camada 1" xmlns="http://www.w3.org/2000/svg" width="477" height="485" viewBox="0 0 477 485" fill="none"><g clip-path="url(#a)"><mask id="b" fill="#fff"><path d="M473.469 157.475c-.538-1.979-1.077-3.779-1.436-5.518-1.675-7.078-3.71-7.618-6.044-7.618-.718 0-1.556.06-2.453.18-.778.06-1.556.18-2.454.18-.419 0-.837.06-1.256.06-9.934 0-20.346-5.819-30.938-17.336-8.258-8.938-17.533-13.496-27.527-13.496-3.41 0-6.941.539-10.771 1.559-1.436.36-2.932.6-4.548.6-5.385 0-10.591-2.279-15.199-4.259-2.454-1.08-4.787-2.099-6.702-2.519a5.894 5.894 0 0 0-1.437-.18c-3.47 0-6.941 2.699-10.053 5.099-1.974 1.559-3.83 2.999-5.565 3.599-1.316.479-1.915.12-2.154-.24-.539-.84.119-2.34 1.436-5.219 1.137-2.459 2.513-5.459 2.633-7.798.12-2.279-3.71-7.738-30.818-18.355-4.548-1.8-8.378-2.7-11.25-2.7-4.967 0-7.42 2.64-7.42 8.098 0 1.98-.24 4.02-1.975 4.02-.479 0-1.077-.18-1.616-.36-.658-.24-1.376-.42-2.034-.42-.958 0-2.394.36-3.83 3.539-2.154 4.738-4.967 5.218-6.104 5.218-1.556 0-2.932-.899-3.291-2.219-.359-1.26.359-2.58 1.855-3.42 4.548-2.698 9.395-9.117 11.25-15.055.18-.54.06-1.14-.359-1.68-2.334-3.24-12.148-5.579-19.388-5.579-2.633 0-4.787.3-6.283.9-3.471 1.38-4.01 4.62-4.489 7.198-.359 1.98-.718 3.78-2.453 3.78-.598 0-1.257-.24-2.094-.66-2.454-1.38-3.531-3.72-2.813-6.359.778-3.059 3.65-5.578 6.343-5.578h.479c3.291 0 7.779-5.759 12.507-16.196 1.974-4.259-.838-6.118-4.728-8.758-1.975-1.32-4.248-2.82-6.044-4.858-2.633-2.94-3.65-8.338-4.727-13.557-1.017-5.219-1.975-10.137-4.309-11.697l-.658.66-.598.6c-.359.36-.718.78-1.137 1.2-.299.3-.539.54-.838.9-.419.419-.838.899-1.257 1.379-.299.36-.658.72-.957 1.08-.419.48-.898 1.02-1.317 1.56-.359.419-.718.839-1.017 1.259-.419.54-.838 1.08-1.316 1.68-.359.42-.718.9-1.018 1.319l-1.256 1.8c-.3.42-.599.9-.898 1.32-.419.659-.778 1.319-1.137 1.979-.179.36-.419.72-.658 1.08-.539 1.02-.958 1.979-1.257 2.939-1.795 5.338-3.949 5.698-7.779 5.638h-1.376c-1.317 0-3.112.06-5.207.78-.837.24-1.675.48-2.453.6-.299.06-.539.06-.778.12-.539.06-1.017.12-1.496.12h-.299c-.18 0-.299-.06-.479-.06-.419 0-.898-.06-1.316-.12l-.718-.18c-.419-.12-.778-.24-1.197-.36-.24-.06-.419-.18-.599-.24l-1.256-.72c-.12-.06-.24-.12-.359-.24-1.077-.78-2.035-1.86-2.813-3.119-.479-.84-1.496-1.2-3.171-1.2-1.377 0-2.992.24-4.668.48-2.214.36-4.488.66-6.463.54-2.214-.18-2.573 1.14-2.872 3.48-.239 1.799-.539 3.838-2.394 4.858-.478.3-1.137.36-1.855.42-.119 0-.179.06-.299.06-.239 0-.479-.06-.778-.06-.299 0-.598-.06-.957-.12l-1.257-.18c-.598-.12-1.197-.24-1.795-.42h-.24c-.119-.06-.239-.06-.359-.12-1.915-.48-3.889-1.02-5.445-1.02-1.257 0-2.154.3-2.753 1.02-1.795 2.04-3.291 1.98-4.548 1.92-.837 0-1.496-.18-2.154 1.14-1.017 2.039-3.411 2.219-5.505 2.399-1.436.12-2.813.18-3.351.9-.838 1.08-2.394 1.679-4.129 1.679-2.394 0-6.284-1.14-11.071-6.418-4.667-5.219-5.804-12.537-5.326-17.636.3-3.239 1.317-5.758 2.633-6.778 1.436-1.08 2.214-3.3 1.975-5.579-.239-2.219-1.376-3.899-3.112-4.678-2.333-1.08-2.513-3.72-2.633-5.999-.179-2.94-.419-4.739-2.812-5.099-.658-.12-1.197-.06-1.676.12-.119.06-.239.12-.359.12-.359.12-.658.3-.897.54-.12.12-.24.18-.3.3-.179.24-.418.48-.538.78-.12.18-.239.42-.359.6l-.18.36c-.119.3-.299.54-.419.84-.239.48-.478.96-.777 1.44-.539.959-1.257 1.859-2.274 2.279-.12.06-.18.12-.24.12-1.137.36-2.872 1.32-4.727 2.279-4.189 2.22-9.036 4.739-11.849 4.139-3.65-.72-8.497.6-8.497 4.619 0 2.519-1.257 3.359-2.513 3.359-1.436 0-3.232-1.26-3.77-3.66-.36-1.619-2.992-1.859-5.625-2.099-2.394-.24-4.608-.42-5.805-1.62-.658-.72-2.513-1.139-4.667-1.139-2.693 0-4.249.66-4.369 1.02 0 .06.12.36.898.84 5.086 2.939 5.445 6.058 5.445 10.497 0 1.86.718 2.58 1.496 3.359.958.96 2.095 2.04 2.095 4.979 0 .54.06.9.12 1.2.06.18.12.3.18.42.059.12.059.24.119.3.24.24.598.36 1.017.3.12 0 .24-.06.36-.06.478-.12.956-.24 1.555-.42.957-.3 1.915-.66 2.872-.66 1.377 0 2.334.96 2.454 2.339.18 1.8-1.137 3.839-3.95 4.319-3.83.72-5.924 2.699-7.12 6.838-.779 2.52-2.574 2.7-4.37 2.94-1.495.18-3.051.359-4.607 1.679l-.838.72c-2.752 2.459-5.146 4.618-7.3 4.618-.599 0-1.197-.18-1.676-.54-1.974-1.32-3.77-.36-6.403 1.14l-.18.12c-.837.48-1.555.72-2.273.72-1.556 0-2.813-1.02-4.847-2.76-.42-.36-.898-.78-1.436-1.2-1.436-1.199-2.633-3.058-4.01-5.278-.419-.6-.778-1.26-1.197-1.92-.12-.18-.239-.3-.299-.48-.359-.539-.658-1.019-1.077-1.559a6.38 6.38 0 0 0-.538-.66c-.36-.48-.659-.9-1.078-1.38a7.61 7.61 0 0 1-.658-.779c-.359-.36-.658-.78-1.077-1.14-1.556.72-3.59 1.5-5.745 2.16-.658.24-1.316.36-1.974.54-.479.12-.898.24-1.377.36-.478.12-.957.18-1.376.3-.898.18-1.795.3-2.453.3-.898 0-2.155-.06-3.59-.06-2.035-.06-4.37-.12-6.643-.12-8.198 0-9.156 1.02-9.275 1.32-.36 1.199-.06 3.118.837 4.618.599 1.08 1.436 1.8 2.214 1.92 1.975.48 4.668 1.26 5.027 2.999.24 1.08-.479 2.22-2.154 3.419-1.915 1.38-3.77 1.56-5.206 1.68-2.274.18-3.531.3-3.531 5.038 0 3.72 2.274 6.958 4.488 10.077 2.573 3.6 5.206 7.319 3.95 11.697-1.137 4.02-2.693 14.277-2.693 17.996 0 3.539-1.436 17.755-5.506 18.595-.18.06-.359.06-.538.06h-.18-.06c-.18 0-.359 0-.538-.06-.36 0-.718 0-1.077-.06-.12 0-.18-.06-.3-.06-.478-.12-.957-.18-1.436-.3-.957-.24-1.974-.54-2.992-.54-.718 0-1.376.12-2.034.42-.658.3-1.317.66-2.035 1.26-2.393 2.039-5.146 2.459-7.839 2.879-2.753.42-5.565.9-8.258 3.059-2.334 1.86-4.787 2.639-6.762 3.299-2.753.9-4.608 1.5-4.787 4.139-.18 2.46-1.377 4.319-2.454 6.119-1.316 2.099-2.453 3.899-1.855 6.298.838 3.419-.658 4.199-2.573 5.219-1.077.54-2.274 1.199-3.47 2.399-1.736 1.74-1.497 3.059-1.197 4.499.239 1.26.478 2.639-.718 4.079-1.915 2.219.418 5.818 2.872 9.657l.718 1.08c.658.96 1.257 1.92 1.915 2.819 2.154 3.06 4.01 5.699 3.71 8.938-.12 1.32.18 2.339.838 3.119 1.017 1.14 2.932 1.62 5.206 1.38 2.154-.24 2.693 1.679 3.052 3.359.478 2.099.957 4.079 4.069 4.079 1.556 0 3.112.12 4.608.18 1.376.06 2.633.18 3.77.18 3.051 0 4.607-.6 5.206-1.98.897-2.099 3.052-4.319 4.787-4.319.658 0 2.154.3 2.154 3.36 0 .779 0 1.799-.06 2.939-.12 4.439-.359 11.937 1.317 13.616.3.3.658.36 1.137.24.479-.18.957-.3 1.556-.42.419-.12.897-.18 1.316-.24.18 0 .3-.06.479-.06 1.316-.18 2.753-.24 4.308-.24 1.616 0 3.232.12 4.728.36.24 0 .479 0 .718.06.658.06 1.197.18 1.795.3 1.017.18 1.975.42 2.753.72.897.3 1.855.48 2.812.54 2.873.12 5.805-1.02 7.96-3.179 1.615-1.62 3.35-2.34 5.564-3.239 1.676-.66 3.53-1.44 5.925-2.76 1.136-.659 2.214-1.319 3.35-1.979 4.31-2.639 8.438-5.159 12.627-5.159 1.616 0 3.53-.3 5.445-.6 1.616-.24 3.112-.48 4.369-.54h.538c1.317 0 2.155.3 2.574.84.359.48.418 1.08.179 1.8-1.257 4.139-1.855 18.235 4.189 25.433 5.326 6.359 8.677 9.358 13.404 9.358.599 0 1.137-.06 1.795-.12.659-.12 1.257-.12 1.796-.12 2.094 0 3.171.66 4.129 1.2.957.539 1.735 1.019 3.47.899h.42c2.153 0 2.632 1.32 2.991 2.46 0 .12.06.18.12.3.299.959.479 1.619 1.197 1.859.239.06.538.12.897.12 2.693 0 11.55.42 11.55 5.699 0 .3.119.539.239.779l.06.06c.179.18.419.36.718.48.06 0 .06.06.12.06.119.06.299.06.418.12.359.12.778.18 1.197.24.599.06 1.257.12 2.035.12.718 0 1.436 0 2.214-.06.718 0 1.496-.06 2.214-.06 1.975 0 4.009.12 5.027 1.02.299.24.598.48.837.72 2.514 2.099 5.147 4.259 4.429 8.817-.359 1.98.837 3.779 1.795 5.339.897 1.38 1.615 2.579 1.316 3.719-.179.66-.658 1.14-1.496 1.56-1.735.839-1.376 1.919 0 4.798.778 1.68 1.736 3.539 1.855 5.699.3 4.139 4.309 6.238 11.849 6.238.658 0 1.376 0 2.094-.06 1.137-.06 2.095-.06 3.052-.06 6.642 0 8.557 1.62 8.557 7.318 0 3.3 1.676 4.919 3.591 6.839 1.556 1.499 3.291 3.239 4.188 5.998 1.197 3.479.24 7.258-.658 10.617-.658 2.52-1.197 4.859-.897 6.779a9.357 9.357 0 0 1 0 2.579c-.06.24-.12.42-.18.66-.12.6-.299 1.199-.538 1.799-.06.24-.18.42-.3.6a8.94 8.94 0 0 1-1.077 1.8c-.06.06-.06.12-.119.18-.12.12-.18.3-.24.36-.419.539-.897.899-1.376 1.259.239.3.359.54.538.84.12.18.3.42.419.6l.539.9c.12.18.179.36.299.539.12.3.18.54.239.78.06.12.12.3.12.42.06.36.06.72 0 1.02-.179.9-.838 1.679-2.094 2.399-1.077.6-.718 1.62.538 4.319 1.377 2.879 3.232 6.778 2.155 11.697-1.018 4.499-1.616 7.198-.659 8.458.778 1.02 2.633 1.44 6.942 1.62 4.608.179 6.702.959 8.138 1.499.658.24 1.077.42 1.556.42.419 0 .898-.18 1.556-.6.419-.24.838-.36 1.256-.36 3.531 0 7.6 7.858 8.677 11.877 1.616 5.819 4.788 13.977 5.865 14.336.299 0 1.077-.419 1.855-.899 1.675-.9 3.889-2.16 6.403-2.16 1.077 0 2.154.24 3.111.72.659.36 1.137.96 1.437 1.68.059.18.179.3.239.48.06.179.06.359.12.539.658 3.12-.359 8.158-1.377 13.077-.299 1.32-.538 2.639-.778 3.839-.059.18-.059.42-.119.6-.24 1.259-.419 2.459-.479 3.419.778 0 1.556-.06 2.394-.06 3.111 0 5.086.24 6.043.66 2.753 1.439 3.95 17.815 2.633 21.054-.837 1.98-4.547 3.659-8.916 5.579-2.633 1.2-5.385 2.399-7.42 3.659-4.727 3.059-16.935 14.516-22.799 24.054-2.454 4.019-5.745 7.558-8.617 10.617-.838.9-1.616 1.739-2.394 2.579.239 0 .539.06.718.06h.419c.598-.06 1.077-.12 1.436-.3a7.484 7.484 0 0 1 3.232-.719c3.051 0 5.984 1.679 8.736 5.038 2.394 2.879 3.471 5.399 4.129 7.078.479 1.2.838 2.04 1.257 2.04.419-.06 1.017-.84 1.496-1.44.957-1.199 2.035-2.579 3.531-2.579 1.017 0 2.034.66 3.051 2.099 2.155 3.06 6.463 5.699 9.934 7.858 2.274 1.38 4.069 2.52 4.907 3.479.538.66 1.496 1.26 2.633 1.98 2.753 1.739 6.463 4.139 6.463 8.878 0 1.079-.12 2.399-.24 3.899a56.734 56.734 0 0 0-.299 3.539v1.139c-.06.9-.06 1.86 0 2.82 0 .479.12 1.019.18 1.499.059.84.179 1.74.299 2.58.12.539.299 1.079.479 1.619.179.66.418 1.32.658 1.92 1.795-2.22 3.65-4.019 5.685-5.459 5.385-3.839 6.223-6.598 7.36-10.137.539-1.8 1.197-3.779 2.513-6.179 1.556-2.819 1.915-4.918 2.274-6.958.479-2.879.958-5.638 4.907-9.417 2.873-2.76 2.813-4.979 2.693-7.139-.12-2.519-.179-4.918 4.488-7.078 1.556-.72 2.872-1.079 3.89-1.079 1.436 0 2.094.719 2.393 1.319 1.077 2.28-1.017 7.258-5.325 12.717-1.137 1.439-4.429 5.638-5.147 7.138.599-.3 2.035-1.08 5.266-3.479 7.361-5.399 10.772-12.717 14.721-21.175.718-1.499 1.436-3.059 2.154-4.618 4.668-9.598 8.617-13.797 13.644-14.457 2.992-.42 4.189-7.138 3.351-18.535-.18-1.979-.419-3.899-.658-5.818-.718-5.399-1.436-10.438 1.077-14.337 1.436-2.159 1.556-4.319 1.616-5.998.119-2.04.239-3.959 2.992-3.959 3.889 0 10.172-6.298 16.276-12.417l.12-.12c6.582-6.538 10.771-7.258 17.713-7.858 3.53-.3 3.889-1.019 4.308-1.859.359-.72.838-1.68 2.992-2.28 3.172-.839 5.565-3.299 7.839-5.638.778-.78 1.496-1.56 2.214-2.22.958-.839 2.633-1.259 5.326-1.259 2.573 0 5.685.36 8.737.719 2.932.36 5.984.72 8.378.72h4.129c5.026 0 7.121-.48 7.121-3.299 0-4.739 3.47-8.518 7.899-8.518 3.77 0 5.325-.899 5.325-6.538 0-5.818 1.676-9.657 5.506-12.537 2.573-1.919 3.53-5.818 4.368-9.237.239-1.02.479-2.04.778-2.88.598-1.859 1.735-2.459 2.753-2.999 1.256-.6 2.214-1.139 2.214-3.959 0-2.999.598-6.118 1.137-9.177.478-2.58.957-5.039.957-7.079 0-2.939 1.855-3.958 3.71-4.918 1.197-.6 2.394-1.26 3.172-2.46.778-1.199.598-2.639.359-4.618-.359-2.7-.838-6.419 1.077-11.757 2.154-6.059 1.376-11.877.658-17.456-.359-2.759-.718-5.578-.718-8.278 0-8.397 0-17.095 3.112-19.915 1.017-.959 1.556-1.739 1.436-2.399-.06-.66-.778-1.32-2.214-2.039-.957-.48-1.376-1.32-1.137-2.34.359-1.619 2.394-2.939 3.89-2.519.718.18 1.496.78 2.214 1.44 1.077.899 2.274 1.859 3.65 1.859.658 0 1.257-.18 1.915-.6 3.231-2.039 6.463-10.317 9.335-17.695l1.077-2.7c2.633-6.778 6.702-8.037 10.293-9.117.957-.3 1.795-.54 2.633-.9 4.129-1.739 12.746-11.757 18.251-25.973 4.608-11.937 1.376-23.514-1.197-32.872z"/></mask><path d="M473.469 157.475c-.538-1.979-1.077-3.779-1.436-5.518-1.675-7.078-3.71-7.618-6.044-7.618-.718 0-1.556.06-2.453.18-.778.06-1.556.18-2.454.18-.419 0-.837.06-1.256.06-9.934 0-20.346-5.819-30.938-17.336-8.258-8.938-17.533-13.496-27.527-13.496-3.41 0-6.941.539-10.771 1.559-1.436.36-2.932.6-4.548.6-5.385 0-10.591-2.279-15.199-4.259-2.454-1.08-4.787-2.099-6.702-2.519a5.894 5.894 0 0 0-1.437-.18c-3.47 0-6.941 2.699-10.053 5.099-1.974 1.559-3.83 2.999-5.565 3.599-1.316.479-1.915.12-2.154-.24-.539-.84.119-2.34 1.436-5.219 1.137-2.459 2.513-5.459 2.633-7.798.12-2.279-3.71-7.738-30.818-18.355-4.548-1.8-8.378-2.7-11.25-2.7-4.967 0-7.42 2.64-7.42 8.098 0 1.98-.24 4.02-1.975 4.02-.479 0-1.077-.18-1.616-.36-.658-.24-1.376-.42-2.034-.42-.958 0-2.394.36-3.83 3.539-2.154 4.738-4.967 5.218-6.104 5.218-1.556 0-2.932-.899-3.291-2.219-.359-1.26.359-2.58 1.855-3.42 4.548-2.698 9.395-9.117 11.25-15.055.18-.54.06-1.14-.359-1.68-2.334-3.24-12.148-5.579-19.388-5.579-2.633 0-4.787.3-6.283.9-3.471 1.38-4.01 4.62-4.489 7.198-.359 1.98-.718 3.78-2.453 3.78-.598 0-1.257-.24-2.094-.66-2.454-1.38-3.531-3.72-2.813-6.359.778-3.059 3.65-5.578 6.343-5.578h.479c3.291 0 7.779-5.759 12.507-16.196 1.974-4.259-.838-6.118-4.728-8.758-1.975-1.32-4.248-2.82-6.044-4.858-2.633-2.94-3.65-8.338-4.727-13.557-1.017-5.219-1.975-10.137-4.309-11.697l-.658.66-.598.6c-.359.36-.718.78-1.137 1.2-.299.3-.539.54-.838.9-.419.419-.838.899-1.257 1.379-.299.36-.658.72-.957 1.08-.419.48-.898 1.02-1.317 1.56-.359.419-.718.839-1.017 1.259-.419.54-.838 1.08-1.316 1.68-.359.42-.718.9-1.018 1.319l-1.256 1.8c-.3.42-.599.9-.898 1.32-.419.659-.778 1.319-1.137 1.979-.179.36-.419.72-.658 1.08-.539 1.02-.958 1.979-1.257 2.939-1.795 5.338-3.949 5.698-7.779 5.638h-1.376c-1.317 0-3.112.06-5.207.78-.837.24-1.675.48-2.453.6-.299.06-.539.06-.778.12-.539.06-1.017.12-1.496.12h-.299c-.18 0-.299-.06-.479-.06-.419 0-.898-.06-1.316-.12l-.718-.18c-.419-.12-.778-.24-1.197-.36-.24-.06-.419-.18-.599-.24l-1.256-.72c-.12-.06-.24-.12-.359-.24-1.077-.78-2.035-1.86-2.813-3.119-.479-.84-1.496-1.2-3.171-1.2-1.377 0-2.992.24-4.668.48-2.214.36-4.488.66-6.463.54-2.214-.18-2.573 1.14-2.872 3.48-.239 1.799-.539 3.838-2.394 4.858-.478.3-1.137.36-1.855.42-.119 0-.179.06-.299.06-.239 0-.479-.06-.778-.06-.299 0-.598-.06-.957-.12l-1.257-.18c-.598-.12-1.197-.24-1.795-.42h-.24c-.119-.06-.239-.06-.359-.12-1.915-.48-3.889-1.02-5.445-1.02-1.257 0-2.154.3-2.753 1.02-1.795 2.04-3.291 1.98-4.548 1.92-.837 0-1.496-.18-2.154 1.14-1.017 2.039-3.411 2.219-5.505 2.399-1.436.12-2.813.18-3.351.9-.838 1.08-2.394 1.679-4.129 1.679-2.394 0-6.284-1.14-11.071-6.418-4.667-5.219-5.804-12.537-5.326-17.636.3-3.239 1.317-5.758 2.633-6.778 1.436-1.08 2.214-3.3 1.975-5.579-.239-2.219-1.376-3.899-3.112-4.678-2.333-1.08-2.513-3.72-2.633-5.999-.179-2.94-.419-4.739-2.812-5.099-.658-.12-1.197-.06-1.676.12-.119.06-.239.12-.359.12-.359.12-.658.3-.897.54-.12.12-.24.18-.3.3-.179.24-.418.48-.538.78-.12.18-.239.42-.359.6l-.18.36c-.119.3-.299.54-.419.84-.239.48-.478.96-.777 1.44-.539.959-1.257 1.859-2.274 2.279-.12.06-.18.12-.24.12-1.137.36-2.872 1.32-4.727 2.279-4.189 2.22-9.036 4.739-11.849 4.139-3.65-.72-8.497.6-8.497 4.619 0 2.519-1.257 3.359-2.513 3.359-1.436 0-3.232-1.26-3.77-3.66-.36-1.619-2.992-1.859-5.625-2.099-2.394-.24-4.608-.42-5.805-1.62-.658-.72-2.513-1.139-4.667-1.139-2.693 0-4.249.66-4.369 1.02 0 .06.12.36.898.84 5.086 2.939 5.445 6.058 5.445 10.497 0 1.86.718 2.58 1.496 3.359.958.96 2.095 2.04 2.095 4.979 0 .54.06.9.12 1.2.06.18.12.3.18.42.059.12.059.24.119.3.24.24.598.36 1.017.3.12 0 .24-.06.36-.06.478-.12.956-.24 1.555-.42.957-.3 1.915-.66 2.872-.66 1.377 0 2.334.96 2.454 2.339.18 1.8-1.137 3.839-3.95 4.319-3.83.72-5.924 2.699-7.12 6.838-.779 2.52-2.574 2.7-4.37 2.94-1.495.18-3.051.359-4.607 1.679l-.838.72c-2.752 2.459-5.146 4.618-7.3 4.618-.599 0-1.197-.18-1.676-.54-1.974-1.32-3.77-.36-6.403 1.14l-.18.12c-.837.48-1.555.72-2.273.72-1.556 0-2.813-1.02-4.847-2.76-.42-.36-.898-.78-1.436-1.2-1.436-1.199-2.633-3.058-4.01-5.278-.419-.6-.778-1.26-1.197-1.92-.12-.18-.239-.3-.299-.48-.359-.539-.658-1.019-1.077-1.559a6.38 6.38 0 0 0-.538-.66c-.36-.48-.659-.9-1.078-1.38a7.61 7.61 0 0 1-.658-.779c-.359-.36-.658-.78-1.077-1.14-1.556.72-3.59 1.5-5.745 2.16-.658.24-1.316.36-1.974.54-.479.12-.898.24-1.377.36-.478.12-.957.18-1.376.3-.898.18-1.795.3-2.453.3-.898 0-2.155-.06-3.59-.06-2.035-.06-4.37-.12-6.643-.12-8.198 0-9.156 1.02-9.275 1.32-.36 1.199-.06 3.118.837 4.618.599 1.08 1.436 1.8 2.214 1.92 1.975.48 4.668 1.26 5.027 2.999.24 1.08-.479 2.22-2.154 3.419-1.915 1.38-3.77 1.56-5.206 1.68-2.274.18-3.531.3-3.531 5.038 0 3.72 2.274 6.958 4.488 10.077 2.573 3.6 5.206 7.319 3.95 11.697-1.137 4.02-2.693 14.277-2.693 17.996 0 3.539-1.436 17.755-5.506 18.595-.18.06-.359.06-.538.06h-.18-.06c-.18 0-.359 0-.538-.06-.36 0-.718 0-1.077-.06-.12 0-.18-.06-.3-.06-.478-.12-.957-.18-1.436-.3-.957-.24-1.974-.54-2.992-.54-.718 0-1.376.12-2.034.42-.658.3-1.317.66-2.035 1.26-2.393 2.039-5.146 2.459-7.839 2.879-2.753.42-5.565.9-8.258 3.059-2.334 1.86-4.787 2.639-6.762 3.299-2.753.9-4.608 1.5-4.787 4.139-.18 2.46-1.377 4.319-2.454 6.119-1.316 2.099-2.453 3.899-1.855 6.298.838 3.419-.658 4.199-2.573 5.219-1.077.54-2.274 1.199-3.47 2.399-1.736 1.74-1.497 3.059-1.197 4.499.239 1.26.478 2.639-.718 4.079-1.915 2.219.418 5.818 2.872 9.657l.718 1.08c.658.96 1.257 1.92 1.915 2.819 2.154 3.06 4.01 5.699 3.71 8.938-.12 1.32.18 2.339.838 3.119 1.017 1.14 2.932 1.62 5.206 1.38 2.154-.24 2.693 1.679 3.052 3.359.478 2.099.957 4.079 4.069 4.079 1.556 0 3.112.12 4.608.18 1.376.06 2.633.18 3.77.18 3.051 0 4.607-.6 5.206-1.98.897-2.099 3.052-4.319 4.787-4.319.658 0 2.154.3 2.154 3.36 0 .779 0 1.799-.06 2.939-.12 4.439-.359 11.937 1.317 13.616.3.3.658.36 1.137.24.479-.18.957-.3 1.556-.42.419-.12.897-.18 1.316-.24.18 0 .3-.06.479-.06 1.316-.18 2.753-.24 4.308-.24 1.616 0 3.232.12 4.728.36.24 0 .479 0 .718.06.658.06 1.197.18 1.795.3 1.017.18 1.975.42 2.753.72.897.3 1.855.48 2.812.54 2.873.12 5.805-1.02 7.96-3.179 1.615-1.62 3.35-2.34 5.564-3.239 1.676-.66 3.53-1.44 5.925-2.76 1.136-.659 2.214-1.319 3.35-1.979 4.31-2.639 8.438-5.159 12.627-5.159 1.616 0 3.53-.3 5.445-.6 1.616-.24 3.112-.48 4.369-.54h.538c1.317 0 2.155.3 2.574.84.359.48.418 1.08.179 1.8-1.257 4.139-1.855 18.235 4.189 25.433 5.326 6.359 8.677 9.358 13.404 9.358.599 0 1.137-.06 1.795-.12.659-.12 1.257-.12 1.796-.12 2.094 0 3.171.66 4.129 1.2.957.539 1.735 1.019 3.47.899h.42c2.153 0 2.632 1.32 2.991 2.46 0 .12.06.18.12.3.299.959.479 1.619 1.197 1.859.239.06.538.12.897.12 2.693 0 11.55.42 11.55 5.699 0 .3.119.539.239.779l.06.06c.179.18.419.36.718.48.06 0 .06.06.12.06.119.06.299.06.418.12.359.12.778.18 1.197.24.599.06 1.257.12 2.035.12.718 0 1.436 0 2.214-.06.718 0 1.496-.06 2.214-.06 1.975 0 4.009.12 5.027 1.02.299.24.598.48.837.72 2.514 2.099 5.147 4.259 4.429 8.817-.359 1.98.837 3.779 1.795 5.339.897 1.38 1.615 2.579 1.316 3.719-.179.66-.658 1.14-1.496 1.56-1.735.839-1.376 1.919 0 4.798.778 1.68 1.736 3.539 1.855 5.699.3 4.139 4.309 6.238 11.849 6.238.658 0 1.376 0 2.094-.06 1.137-.06 2.095-.06 3.052-.06 6.642 0 8.557 1.62 8.557 7.318 0 3.3 1.676 4.919 3.591 6.839 1.556 1.499 3.291 3.239 4.188 5.998 1.197 3.479.24 7.258-.658 10.617-.658 2.52-1.197 4.859-.897 6.779a9.357 9.357 0 0 1 0 2.579c-.06.24-.12.42-.18.66-.12.6-.299 1.199-.538 1.799-.06.24-.18.42-.3.6a8.94 8.94 0 0 1-1.077 1.8c-.06.06-.06.12-.119.18-.12.12-.18.3-.24.36-.419.539-.897.899-1.376 1.259.239.3.359.54.538.84.12.18.3.42.419.6l.539.9c.12.18.179.36.299.539.12.3.18.54.239.78.06.12.12.3.12.42.06.36.06.72 0 1.02-.179.9-.838 1.679-2.094 2.399-1.077.6-.718 1.62.538 4.319 1.377 2.879 3.232 6.778 2.155 11.697-1.018 4.499-1.616 7.198-.659 8.458.778 1.02 2.633 1.44 6.942 1.62 4.608.179 6.702.959 8.138 1.499.658.24 1.077.42 1.556.42.419 0 .898-.18 1.556-.6.419-.24.838-.36 1.256-.36 3.531 0 7.6 7.858 8.677 11.877 1.616 5.819 4.788 13.977 5.865 14.336.299 0 1.077-.419 1.855-.899 1.675-.9 3.889-2.16 6.403-2.16 1.077 0 2.154.24 3.111.72.659.36 1.137.96 1.437 1.68.059.18.179.3.239.48.06.179.06.359.12.539.658 3.12-.359 8.158-1.377 13.077-.299 1.32-.538 2.639-.778 3.839-.059.18-.059.42-.119.6-.24 1.259-.419 2.459-.479 3.419.778 0 1.556-.06 2.394-.06 3.111 0 5.086.24 6.043.66 2.753 1.439 3.95 17.815 2.633 21.054-.837 1.98-4.547 3.659-8.916 5.579-2.633 1.2-5.385 2.399-7.42 3.659-4.727 3.059-16.935 14.516-22.799 24.054-2.454 4.019-5.745 7.558-8.617 10.617-.838.9-1.616 1.739-2.394 2.579.239 0 .539.06.718.06h.419c.598-.06 1.077-.12 1.436-.3a7.484 7.484 0 0 1 3.232-.719c3.051 0 5.984 1.679 8.736 5.038 2.394 2.879 3.471 5.399 4.129 7.078.479 1.2.838 2.04 1.257 2.04.419-.06 1.017-.84 1.496-1.44.957-1.199 2.035-2.579 3.531-2.579 1.017 0 2.034.66 3.051 2.099 2.155 3.06 6.463 5.699 9.934 7.858 2.274 1.38 4.069 2.52 4.907 3.479.538.66 1.496 1.26 2.633 1.98 2.753 1.739 6.463 4.139 6.463 8.878 0 1.079-.12 2.399-.24 3.899a56.734 56.734 0 0 0-.299 3.539v1.139c-.06.9-.06 1.86 0 2.82 0 .479.12 1.019.18 1.499.059.84.179 1.74.299 2.58.12.539.299 1.079.479 1.619.179.66.418 1.32.658 1.92 1.795-2.22 3.65-4.019 5.685-5.459 5.385-3.839 6.223-6.598 7.36-10.137.539-1.8 1.197-3.779 2.513-6.179 1.556-2.819 1.915-4.918 2.274-6.958.479-2.879.958-5.638 4.907-9.417 2.873-2.76 2.813-4.979 2.693-7.139-.12-2.519-.179-4.918 4.488-7.078 1.556-.72 2.872-1.079 3.89-1.079 1.436 0 2.094.719 2.393 1.319 1.077 2.28-1.017 7.258-5.325 12.717-1.137 1.439-4.429 5.638-5.147 7.138.599-.3 2.035-1.08 5.266-3.479 7.361-5.399 10.772-12.717 14.721-21.175.718-1.499 1.436-3.059 2.154-4.618 4.668-9.598 8.617-13.797 13.644-14.457 2.992-.42 4.189-7.138 3.351-18.535-.18-1.979-.419-3.899-.658-5.818-.718-5.399-1.436-10.438 1.077-14.337 1.436-2.159 1.556-4.319 1.616-5.998.119-2.04.239-3.959 2.992-3.959 3.889 0 10.172-6.298 16.276-12.417l.12-.12c6.582-6.538 10.771-7.258 17.713-7.858 3.53-.3 3.889-1.019 4.308-1.859.359-.72.838-1.68 2.992-2.28 3.172-.839 5.565-3.299 7.839-5.638.778-.78 1.496-1.56 2.214-2.22.958-.839 2.633-1.259 5.326-1.259 2.573 0 5.685.36 8.737.719 2.932.36 5.984.72 8.378.72h4.129c5.026 0 7.121-.48 7.121-3.299 0-4.739 3.47-8.518 7.899-8.518 3.77 0 5.325-.899 5.325-6.538 0-5.818 1.676-9.657 5.506-12.537 2.573-1.919 3.53-5.818 4.368-9.237.239-1.02.479-2.04.778-2.88.598-1.859 1.735-2.459 2.753-2.999 1.256-.6 2.214-1.139 2.214-3.959 0-2.999.598-6.118 1.137-9.177.478-2.58.957-5.039.957-7.079 0-2.939 1.855-3.958 3.71-4.918 1.197-.6 2.394-1.26 3.172-2.46.778-1.199.598-2.639.359-4.618-.359-2.7-.838-6.419 1.077-11.757 2.154-6.059 1.376-11.877.658-17.456-.359-2.759-.718-5.578-.718-8.278 0-8.397 0-17.095 3.112-19.915 1.017-.959 1.556-1.739 1.436-2.399-.06-.66-.778-1.32-2.214-2.039-.957-.48-1.376-1.32-1.137-2.34.359-1.619 2.394-2.939 3.89-2.519.718.18 1.496.78 2.214 1.44 1.077.899 2.274 1.859 3.65 1.859.658 0 1.257-.18 1.915-.6 3.231-2.039 6.463-10.317 9.335-17.695l1.077-2.7c2.633-6.778 6.702-8.037 10.293-9.117.957-.3 1.795-.54 2.633-.9 4.129-1.739 12.746-11.757 18.251-25.973 4.608-11.937 1.376-23.514-1.197-32.872z" fill="#fff" fill-opacity=".5" stroke="#E3E8EC" stroke-width="2" mask="url(#b)"/><path d="M163.376 550.374v-.54-.06c0-.06-.06-.12-.06-.18-.18-.18-.479-.3-.838-.42-1.795-.66-3.411-1.74-3.171-8.098.119-4.019.897-5.699 1.675-7.558.838-2.04 1.736-4.139 1.915-9.778.18-6.178 1.616-10.977 2.813-14.816.897-2.939 1.675-5.458 1.675-7.858 0-.6.12-1.199.299-1.799.06-.12.06-.18.12-.3.179-.48.419-.96.718-1.5.239-.42.479-.84.778-1.259.12-.18.299-.42.419-.6.538-.72 1.137-1.5 1.795-2.22.06-.06.06-.12.12-.18l.179-.18a123.39 123.39 0 0 1 2.932-3.239c2.873-3.059 6.164-6.538 8.558-10.497 5.924-9.658 18.311-21.295 23.098-24.414 2.035-1.319 4.847-2.579 7.54-3.719 3.77-1.679 7.719-3.359 8.378-4.979 1.137-2.939-.18-18.655-2.155-19.614-.418-.18-1.675-.54-5.505-.54-.778 0-1.616 0-2.394.06v.779c.06.6.12 1.26.12 2.04 0 .54-.06 1.14-.12 1.739-.418 5.219-2.333 12.297-4.787 15.057a4.726 4.726 0 0 1-1.256 1.019c-.12.06-.24.06-.419.12-.24.12-.539.24-.778.24H204.486c-1.675 0-3.291 1.38-4.847 2.7-1.556 1.319-2.992 2.579-4.548 2.579-.239 0-.478 0-.718-.06-1.077-.3-2.633.48-4.249 1.32-1.615.839-3.291 1.679-5.026 1.679-.898 0-1.676-.24-2.454-.66-.957-.6-2.154-.839-3.65-.839-.957 0-1.975.119-2.992.239s-1.915.24-2.812.24c-1.377 0-2.394-.24-3.292-.779-1.376-.84-4.129-1.02-6.582-1.14-3.231-.18-6.044-.3-6.044-2.1 0-1.139.778-1.739 1.556-2.339 1.257-.96 2.812-2.159 2.812-6.478 0-4.199 3.77-8.518 6.822-12.057 2.035-2.34 4.129-4.739 3.591-5.639-.659-1.199-6.224-3.419-11.071-5.398-5.924-2.4-12.028-4.919-13.584-6.899-2.333-2.999-6.103-6.598-14.361-7.378-5.087-.539-6.942-2.339-9.276-4.618-1.436-1.38-2.992-3-5.685-4.619a27.015 27.015 0 0 1-2.453-1.74c-.299-.18-.539-.48-.838-.66l-1.795-1.439c-.359-.3-.778-.66-1.137-1.02-.539-.48-1.017-.9-1.556-1.44-.419-.42-.838-.839-1.316-1.259l-1.377-1.38c-.478-.48-.897-.96-1.316-1.44-.419-.419-.778-.839-1.197-1.259-.419-.48-.778-.9-1.137-1.38-.359-.42-.778-.84-1.077-1.32-.359-.419-.598-.779-.898-1.199-.359-.42-.718-.9-1.017-1.32-.239-.36-.419-.66-.658-.96-.24-.36-.539-.779-.718-1.139-.539-.06-1.018-.12-1.616-.18-2.394-.24-5.146-.6-7.24-.6-1.916 0-2.753.24-3.172.48-.12.06-.24.18-.3.24-.538.6-1.136 1.979-1.855 3.359-1.436 3.059-2.932 6.178-4.787 6.178-.838 0-1.556-.6-2.154-1.859-2.274-4.499-7.48-5.099-12.507-5.699-.778-.12-1.555-.18-2.333-.3-2.155-.3-3.531-1.199-4.608-1.919-.838-.54-1.496-.96-2.214-.96-1.077 0-2.454.96-4.488 3.059l-1.077 1.08-.599.6c-.18.18-.359.3-.538.48-.36.3-.718.659-1.078.959l-.299.3c-.359.3-.658.6-1.017.84-.36.3-.718.6-1.137.9-.419.3-.778.66-1.197.96-.12.06-.24.18-.359.24a27.53 27.53 0 0 1-2.334 1.619c-.06.48-.06.96-.12 1.44 0 .24-.06.42-.06.66-.059.599-.119 1.139-.179 1.739 0 .18-.06.42-.06.6-.06.6-.12 1.2-.239 1.74 0 .179-.06.359-.06.599-.06.6-.18 1.14-.24 1.68 0 .18-.059.36-.059.54-.12.6-.18 1.14-.3 1.679 0 .12-.059.24-.059.36-.12.54-.24 1.02-.359 1.5 0 .12-.06.24-.06.36-.12.48-.24.9-.419 1.319 0 .06-.06.12-.06.18-.18.42-.299.78-.478 1.08-.778 1.38-3.59 3.119-6.942 5.219-3.53 2.219-7.959 5.038-8.138 6.538-.12 1.08 0 2.339.18 3.539.299 2.4.598 4.919-1.138 6.419-.718.599.24 3.059 1.078 5.218 1.376 3.539 2.932 7.618.06 9.178-.599.36-.958.72-1.078 1.14-.18.779.479 1.859 1.137 2.879.958 1.499 2.095 3.299.479 4.739-1.077.899-2.394 1.619-3.71 2.339-2.095 1.14-4.07 2.159-4.07 3.659 0 2.939-.418 9.957-4.308 11.697-3.35 1.5-5.685 7.258-5.685 11.457 0 2.339-1.436 2.999-2.513 3.479-1.257.6-2.035.9-1.077 3.539 1.616 4.499 3.41 9.658 1.975 12.477-.48.9-1.257 1.5-2.334 1.799-2.154.6-2.813 3.54-3.351 6.179-.479 2.279-.898 4.199-2.394 4.199-.24 0-.598.3-.838.84-1.316 2.639-1.376 9.117 1.257 12.656 3.95 5.279 4.488 9.598 4.488 13.497 0 1.739.838 3.179 1.676 4.679 1.196 2.039 2.453 4.139 1.436 7.078-.599 1.739-.838 3.479-1.077 4.978-.42 2.76-.778 5.099-2.753 6.479-1.077.78-1.257 2.399-1.436 4.139-.18 2.099-.42 4.499-2.633 5.518-1.436.66-.599 4.559.12 7.978.837 3.779 1.615 7.378 0 8.758-.659.54-1.496 1.08-2.394 1.62-3.291 2.039-7.36 4.558-7.36 11.097 0 3.779.239 6.898.478 9.357.3 3.539.479 6.059-.06 8.338-.239 1.02.18 1.44 1.078 2.22 1.077.899 2.573 2.099 2.094 5.338-.479 3.299-3.112 3.659-5.027 3.899-1.735.24-2.453.42-2.513 1.32-.12 1.08 0 2.579.18 4.019.299 2.999.598 6.058-1.437 6.418-1.436.24-3.111 1.32-3.111 7.858 0 3.599-1.257 5.339-2.334 6.718-.599.84-1.137 1.56-1.257 2.52-.18 1.259.539 2.759 1.257 4.259.778 1.559 1.556 3.179 1.556 4.798 0 .78.12 2.04.24 3.479.598 6.299.897 11.098-1.557 11.457-.598.12-1.496 1.44-2.154 4.199-.898 3.899-.718 8.038.36 8.758 2.752 1.8 2.632 5.339 1.375 7.858-.06.18-.12.3-.06.48.06.48.54 1.14 1.257 1.919 1.317 1.56 3.172 3.6.658 6.119-1.017 1.02-1.496 2.159-1.436 3.179 0 .36.06.72.24 1.02.658 1.559 2.573 2.279 4.667 1.619.36-.12.718-.18 1.018-.18 2.273 0 4.009 2.34 4.009 4.439 0 .78-.24 1.44-.718 1.92-.3.3-.718.6-1.437.78-.12 0-.239.06-.299.06h-.418c-1.736 0-4.788 0-5.685.419-.12.06-.24.12-.24.18 0 0 0 .36 1.137 1.2 3.411 2.699 5.027 4.979 4.787 6.838 0 .18-.06.3-.12.48-.358 1.02-1.256 1.86-2.812 2.46-1.556.599-2.094 1.259-2.214 2.159-.06.3 0 .6 0 .96.06.48.18.96.3 1.559.358 1.56.718 3.299.239 5.279-.479 1.979.12 3.839.598 5.519.479 1.559.898 2.879.36 3.959-.3.599-.898 1.019-1.736 1.259-1.317.42-1.257 1.68-1.077 3.659.239 2.1.538 5.039-2.992 5.519-2.753.42-2.933 1.859-3.172 3.839-.18 1.619-.419 3.479-2.154 4.799-1.317 1.019-.658 2.279.538 4.258 1.137 1.98 2.573 4.379-.18 6.119-1.914 1.2-2.213 3.179-2.512 5.099-.3 2.039-.659 4.139-3.352 4.139-3.83 0-6.223 5.398-6.642 8.277-.12.66-.299 1.38-.538 2.22-.778 2.879-1.855 6.778.778 9.717 2.094 2.28 1.735 4.439 1.436 5.999-.24 1.439-.3 2.099.778 2.639 1.017.54 3.171.6 5.206.66 3.171.06 6.163.18 7.24 1.679.42.6.48 1.38.18 2.34-1.436 4.259-1.197 12.537.06 14.276.12.18.18.18.18.18 1.136 0 1.974 1.26 2.812 2.579.957 1.5 2.034 3.24 3.47 3 .18 0 .48-.06.838-.12 2.574-.3 9.156-.96 15.02-.96 3.411 0 6.044.24 7.84.72 1.256.3 2.453.839 3.65 1.559.359.24.778.6 1.137.84.778.54 1.556 1.02 2.334 1.68.418-.12.957-.24 1.495-.24 1.736 0 3.83.66 5.805 1.319 1.556.54 3.052 1.02 4.01 1.02.358 0 .598-.06.717-.18.778-.78-1.795-3.959-3.53-5.998-2.035-2.46-3.83-4.619-3.65-6.059.12-1.319-.3-3.239-.719-5.098-.359-1.68-.777-3.419-.777-4.859 0-.54-.06-1.2-.12-1.92-.24-3.299-.599-8.337 2.992-10.917 1.675-1.199 2.693-2.339 3.47-3.299 1.197-1.44 2.215-2.459 4.01-2.039 2.094.479 7.3-1.98 7.54-8.938.3-7.258 3.53-9.958 9.335-14.936l.3-.24c2.393-2.04 5.445-4.079 8.078-5.879 3.59-2.399 8.018-5.398 7.36-6.418-1.017-1.62.06-5.039 1.077-8.398.599-1.979 1.197-3.779 1.197-4.859 0-1.439-4.428-1.859-7.6-2.159-2.094-.18-4.069-.42-5.266-.84-1.974-.72-8.078-4.559-10.292-10.497-1.317-3.539-1.017-7.138.897-10.677 2.813-5.219 8.917-11.637 22.201-12.657 1.197-.12 1.317-.78 1.317-2.639 0-1.5 0-3.36 1.675-4.379 2.753-1.62 3.292-4.439 3.292-8.638 0-5.039 0-13.497 5.804-14.156 3.172-.36 4.668-1.56 4.727-2.28 0-.42-.478-.78-1.316-1.019-2.035-.54-3.47-2.16-3.291-3.66.06-.719.538-2.339 4.009-2.759.3-.06.598-.06.898-.06 2.573 0 3.41 1.5 4.069 2.64.598 1.079 1.017 1.799 2.453 1.799 2.095 0 5.446-2.339 6.343-5.099.539-1.679.12-3.119-1.376-4.259-1.077-.839-2.035-1.199-2.872-1.199-1.257 0-2.274.96-3.172 1.859-.778.78-1.616 1.56-2.633 1.8-.24.06-.419.06-.658.06-1.377 0-2.573-.96-3.71-1.92-1.077-.839-2.095-1.679-3.112-1.679s-1.675-.72-1.915-2.1c-.18-1.079-.18-2.459-.18-3.779 0-1.739 0-3.479-.418-4.439-1.017-2.339-3.172-9.237-.539-12.956.479-.66 1.197-.96 2.154-.96 1.796 0 4.429 1.14 7.42 2.519 3.77 1.68 8.08 3.599 12.088 3.839 8.318.6 14.721-4.139 14.721-7.138 0-.84-.299-1.919-.658-3.059-.898-3.059-2.094-7.318 2.094-10.077 1.377-.9 2.095-1.74 2.274-2.4.18-.78-.419-1.559-1.077-2.639-.658-.96-1.496-2.22-1.975-3.779-.658-1.98-.418-3.959.599-5.339 1.257-1.739 3.53-1.979 5.026-.54.3.3 1.556 1.02 6.643 1.02 6.822 0 17.413-1.26 26.988-3.179 15.14-3.119 24.116-8.518 24.894-11.997.598-2.759 4.488-7.618 7.898-11.937 1.796-2.279 3.531-4.379 4.249-5.638.898-1.5 1.017-3.18.299-4.619-.837-1.8-2.812-2.999-5.505-3.359-2.932-.42-4.189-2.16-4.668-3.539-1.017-2.64-.179-6.299 1.975-8.818.838-1.02 1.077-2.04.718-3.059-.778-1.92-4.009-3.659-7.719-4.079-4.009-.42-10.113-2.52-11.19-5.819-.359-.959-.359-2.519 1.496-4.259 1.316-1.259 2.333-1.799 3.351-1.799.598 0 1.077.24 1.556.48 0-.06.059-.06.059-.12.3-.78.479-1.44.599-1.98 0-.06.06-.12.06-.24.119-.48.179-.839.239-1.139.12.42.12.42.12.36z" fill="#E3E8EC"/><path d="M6.952 846.157c-1.137-.66-2.214-1.14-3.35-1.44-1.676-.42-4.25-.659-7.54-.659-6.464 0-13.824.839-15.62 1.079h-.179c-.538.06-1.017 0-1.436-.18-.3-.12-.658-.3-.898-.54-.837-.719-1.555-1.739-2.154-2.759-.598-.9-1.197-1.859-1.675-2.039-.06-.06-.12-.06-.24-.06-.299 0-.718-.12-1.077-.66-1.556-2.16-1.675-10.857-.24-15.296.18-.6.18-1.02-.059-1.32-.778-1.08-3.71-1.14-6.343-1.26-2.274-.06-4.428-.119-5.685-.779-1.855-.9-1.616-2.4-1.376-3.839.24-1.5.538-3.179-1.197-5.099-2.992-3.359-1.855-7.618-1.017-10.737.239-.84.419-1.56.478-2.1.42-2.879 2.932-9.237 7.72-9.237 1.675 0 1.915-1.08 2.274-3.239.299-1.92.658-4.379 2.992-5.879 1.735-1.08 1.077-2.459-.18-4.679-1.017-1.799-2.334-4.079-.24-5.698 1.377-1.08 1.557-2.519 1.736-4.079.24-2.04.539-4.319 4.07-4.799 2.393-.36 2.333-1.859 2.094-4.319-.18-1.919-.42-4.139 1.855-4.858.538-.18.898-.42 1.077-.72.36-.66 0-1.8-.419-3.119-.538-1.74-1.197-3.899-.658-6.119.419-1.739.06-3.359-.24-4.739-.538-2.399-1.017-4.618 2.574-5.998 1.376-.54 2.094-1.2 2.214-2.04.18-1.379-1.317-3.479-4.369-5.818-.837-.66-1.795-1.56-1.496-2.459.42-1.26 2.933-1.32 7.002-1.32.598 0 1.077-.18 1.376-.48.36-.36.419-.84.419-1.2 0-1.559-1.257-3.299-2.932-3.299-.24 0-.479.06-.718.12-2.633.78-5.147-.18-5.984-2.279-.18-.42-.3-.9-.3-1.38-.06-1.379.539-2.819 1.796-4.079 1.615-1.679.837-2.819-.719-4.619-1.017-1.139-2.034-2.339-1.376-3.599 1.077-2.099 1.197-5.038-1.017-6.478-1.855-1.26-1.616-6.538-.838-9.897.419-1.8 1.317-4.799 3.052-5.039 1.556-.24.898-7.018.598-10.257-.12-1.5-.239-2.76-.239-3.6 0-1.439-.718-2.879-1.436-4.318-.778-1.62-1.616-3.3-1.376-4.919.18-1.2.837-2.1 1.496-2.999.957-1.32 2.094-2.88 2.094-6.059 0-5.698 1.257-8.458 4.07-8.937 1.016-.18.717-2.94.538-5.219-.18-1.5-.3-3.119-.18-4.319.24-1.859 1.975-2.039 3.47-2.219 1.916-.24 3.711-.48 4.07-2.94.419-2.579-.658-3.419-1.735-4.318-.898-.72-1.915-1.56-1.496-3.3.538-2.099.299-4.558.06-7.978-.18-2.519-.48-5.638-.48-9.477 0-7.198 4.549-10.017 7.9-12.057.897-.54 1.675-1.02 2.274-1.56 1.077-.959.299-4.498-.36-7.678-.239-1.019-.478-2.099-.598-3.059-.12-.72-.24-1.439-.299-2.099-.18-1.98.12-3.479 1.436-4.019 1.257-.54 1.616-1.74 1.855-3.119l.18-1.44c.18-1.859.359-3.839 1.855-4.919 1.556-1.139 1.915-3.179 2.274-5.758.24-1.56.479-3.359 1.137-5.159.838-2.459-.24-4.259-1.377-6.178-.897-1.56-1.855-3.179-1.855-5.219 0-3.719-.538-7.858-4.308-12.837-2.992-4.018-2.813-10.917-1.376-13.796.598-1.2 1.316-1.5 1.795-1.5.598 0 .957-1.799 1.316-3.299.599-2.759 1.317-6.238 4.13-7.018.777-.18 1.316-.6 1.675-1.26 1.256-2.399-.539-7.498-2.035-11.577-1.256-3.539.36-4.318 1.676-4.918 1.077-.48 1.855-.84 1.855-2.52 0-4.678 2.513-10.797 6.283-12.476 3.411-1.5 3.65-8.578 3.65-10.678 0-2.099 2.274-3.359 4.668-4.618 1.257-.66 2.513-1.38 3.47-2.16.838-.72.42-1.559-.658-3.299-.777-1.2-1.555-2.459-1.256-3.719.18-.72.718-1.32 1.615-1.8 2.035-1.139.659-4.678-.538-7.857-1.137-2.88-2.095-5.339-.718-6.479 1.316-1.08 1.017-3.179.778-5.398-.18-1.32-.3-2.64-.18-3.839.24-1.92 3.59-4.139 8.677-7.319 2.932-1.859 5.924-3.719 6.523-4.858.12-.24.24-.54.359-.9.06-.12.06-.3.12-.42.06-.24.179-.54.239-.84.06-.18.12-.42.18-.66.06-.299.179-.599.239-.959.06-.24.12-.54.18-.78l.179-1.08c.06-.3.12-.66.18-.96.06-.359.119-.719.179-1.139.06-.36.12-.78.18-1.14.06-.36.119-.72.119-1.08.06-.42.12-.839.12-1.259.06-.36.06-.72.12-1.08.06-.48.06-.9.119-1.38 0-.18 0-.36.06-.54-2.394 1.5-4.608 2.52-6.104 2.64h-.359c-.06 0-.06-.06-.12-.06-.419 0-.837-.12-1.077-.3-.299-.18-.419-.42-.538-.66-.479-1.08-.539-2.819-.599-4.799-.12-3.299-.299-7.438-2.393-9.537-1.855-1.86-2.214-4.619-2.514-7.018-.299-2.34-.538-4.379-2.034-5.039-2.753-1.26-5.745-5.339-6.104-8.458-.18-1.5.24-2.759 1.257-3.479 1.376-1.02 1.376-2.699 1.316-4.439-.06-1.799-.12-3.659 1.436-4.979.48-.359.659-.719.659-.959 0-.42-.838-1.02-1.796-1.74-1.196-.9-2.872-2.099-4.428-4.019-2.034-2.459-1.735-5.218-1.436-7.678.3-2.579.539-4.739-1.616-6.358-2.513-1.92-3.77-4.019-4.488-5.279-.18-.3-.359-.66-.538-.84l-.06.06c-.06.12-.12.3-.18.42-.12.3-.299.66-.419 1.14-.12.36-.239.72-.299 1.08-.658 2.459-1.615 5.758-3.83 7.498-.12.12-.299.24-.478.36-.18.12-.36.24-.539.3-.24.12-.598.36-1.077.659-.12.12-.359.24-.479.36-.299.24-.658.48-1.017.78 0 .96-.12 2.1-.24 3.359-.239 2.82-.538 6.059.3 8.158 1.795 4.559 2.693 26.333.897 34.551-1.795 8.458-3.59 15.236-5.325 20.095-.838 2.399.239 3.539 1.256 4.559.838.84 1.855 1.919.42 3.359-1.616 1.619-1.557 5.458-1.377 11.217.06 1.859.12 3.839.12 6.118 0 5.819-2.095 14.037-3.77 20.695-1.078 4.199-1.975 7.798-2.095 9.717-.12 2.28-1.017 4.259-1.795 6.119-1.017 2.399-2.035 4.619-1.735 7.618.598 5.938-2.813 9.297-6.104 11.997-1.436 1.199.359 4.439 2.154 7.618 1.556 2.819 3.232 5.698 3.052 7.978-.12 2.039-1.257 3.599-2.394 5.218-1.675 2.34-3.47 4.739-2.573 9.118 1.436 7.438.659 19.015.24 25.253-.12 1.86-.24 3.3-.24 4.019 0 1.5-.718 2.34-1.436 3.18-1.017 1.199-2.034 2.399-1.556 5.878.479 3.359-.598 5.399-1.855 7.738-1.137 2.219-2.453 4.679-2.872 8.878-.659 6.598-4.488 15.176-7.6 22.074-1.077 2.399-2.094 4.619-2.753 6.418a74.8 74.8 0 0 0-1.615 4.679c-1.257 3.899-2.035 6.298-5.027 6.298-1.017 0-1.795.36-2.214 1.08-.958 1.5-.598 4.379.957 7.918 1.317 2.939.958 5.639.659 8.218-.36 2.879-.718 5.579 1.077 8.518 3.35 5.578 2.573 7.978 1.077 12.656l-.419 1.38c-.718 2.34-1.556 3.779-2.334 5.039-1.017 1.739-1.795 2.999-1.795 5.998 0 2.16-.658 4.139-1.257 6.059-.957 3.059-1.914 5.938-.538 9.357 1.556 3.959 1.855 6.299 1.017 7.618-.538.78-1.376 1.14-2.693 1.14-2.393 0-3.83 4.019-5.026 13.976-.539 4.499-.838 7.078-.06 7.978.538.66 2.094.6 5.086.36l.539-.06c3.47-.3 3.41-7.738 3.41-13.676 0-2.58 0-5.039.24-6.838.12-.9.479-3.36 2.274-3.36 1.735 0 1.795-.54 1.975-1.619.18-1.14.359-2.7 2.872-3.359 1.257-.3 2.035-.24 2.514.3.538.599.538 1.499.478 2.399-.06 1.44 0 2.099.838 2.339 2.035.6 3.351 1.8 3.59 3.12.18 1.319-.658 2.579-2.513 3.779-1.975 1.259-1.496 3.299-.957 5.578.478 1.92.957 3.839-.06 5.459-.24.42-.539.78-.778 1.199-1.915 2.82-3.83 5.819-2.394 8.878 1.077 2.339.24 3.479-.658 4.619-.718.96-1.556 2.039-1.675 4.199-.12 2.399.478 3.659.897 4.439.419.839.838 1.619-.598 2.459-.48.24-.3.84.299 2.159.419.96.898 1.92.479 2.7-.24.42-.659.72-1.317.84-.658.12-.898.419-.957.659-.659 1.32.957 4.559 1.974 6.539.42.839.539 1.559.24 2.099-.479.84-1.616 1.02-2.992 1.14-1.377.18-2.992.36-4.13 1.259-1.076.84-.717 1.68.36 3.54.897 1.559 1.915 3.299.957 5.158-.479.9-1.197 1.38-2.154 1.38-2.035 0-4.548-2.28-6.343-3.959-.36-.3-.658-.6-.898-.78-.419-.36-.658-.78-.658-1.26-.06-1.439 1.556-3.119 3.47-5.038l.12-.12c-.718.3-1.855.24-2.932.12-.478-.06-1.017-.12-1.496-.12-.658 0-1.017.12-1.256.3-.18.18-.24.48-.18.899.18 2.88-1.915 3.48-3.95 4.079-1.376.42-2.872.84-3.83 1.92-1.016 1.14-.418 2.159.6 3.539.598.78 1.076 1.5.897 2.159-.12.42-.539.72-1.137.9-2.693.78-7.6 4.739-7.84 7.438-.06.66.06 1.2.42 1.56.239.24.538.36.778.36.598 0 .957-.54.957-1.38 0-1.739 1.436-3.119 3.351-3.119 1.316 0 3.052.78 3.89 2.879.538 1.38 1.017 1.38 1.316 1.38.36 0 .898-.18 1.436-.36.838-.3 1.855-.66 3.112-.66.479 0 .958.06 1.376.18 2.693.54 3.65 3.059 3.411 5.159-.18 1.739-1.137 2.939-2.453 2.699-.599-.06-1.257.24-1.855.96-1.077 1.259-2.035 3.839-1.676 6.718.12.78.479 1.56 2.334 1.56 1.077 0 2.513-.24 3.83-.48 2.154-.42 4.428-.78 5.804-.3 2.095.72 2.873 2.939 2.574 4.799-.18 1.199-.838 1.979-1.616 1.979-.42 0-.838-.18-1.197-.6-1.556-1.559-4.07-3.419-5.924-3.419-.898 0-1.556.42-2.035 1.26-.897 1.559-2.154 2.339-3.71 2.339-1.496 0-3.052-.72-4.428-1.32l-.479-.239c-.18-.06-.359-.12-.598-.12-2.274 0-7.36 3.059-8.079 5.338-.18.54-.06.9.36 1.2 1.735 1.259 2.513 2.879 3.111 4.079.539 1.139.838 1.739 1.376 1.739 1.975-.3 5.087-1.619 6.164-3.839.718-1.439 2.394-2.939 4.01-2.939.897 0 2.453.48 2.632 3.719.18 3.599-2.154 4.079-4.069 4.439-1.257.24-2.334.48-2.753 1.44-1.077 2.759-3.231 5.098-7.24 8.157-1.496 1.14-1.317 2.34-1.137 3 .478 1.439 2.214 2.339 3.47 1.679 1.018-.48 1.556-.3 1.736-.06.359.36.3.9.24 1.56-.12 1.38-.06 2.339 1.555 2.579 1.496.18 2.573-.12 3.172-.96.658-.839.778-2.219.299-3.659-.479-1.739.12-4.378 1.376-6.118 1.436-1.919 3.411-2.219 5.087-.66 2.573 2.34 1.017 4.799-.24 6.778-.718 1.08-1.376 2.16-1.376 3.06 0 1.559-.479 3.179-1.017 4.978-.539 1.74-1.018 3.479-1.018 5.099 0 1.919-1.256 2.459-2.094 2.879-.898.42-1.556.66-1.436 2.1.18 2.459-2.633 2.699-4.369 2.819-.18 0-.419.06-.658.06.12.06.18.12.36.24 2.572 1.559 1.316 3.659.418 5.159-.778 1.319-1.257 2.219-.598 2.939.359.36.598.36.658.36.479 0 1.077-.54 1.675-1.08.958-.84 2.035-1.74 3.411-1.74.36 0 .718.06 1.078.18.777.3 1.376.54 1.855.78.598.3 1.017.48 1.496.48.598 0 1.436-.3 3.051-.96.659-.3 1.257-.42 1.915-.42 1.975 0 3.232 1.38 3.411 2.7.24 1.439-.658 2.639-2.274 3.179-2.513.78-5.325 3.119-6.044 4.619-.18.3-.18.48-.18.54.12.06.24.06.36.06.479 0 1.197-.18 1.975-.42.957-.24 2.034-.54 2.992-.54 1.555 0 2.513.72 2.992 2.219.359 1.2.957 1.92 1.556 1.92.778 0 1.615-1.2 1.795-3.299.12-1.5 1.017-2.34 2.513-2.34 2.394 0 6.164 2.46 7.121 5.159.3.84.12 1.619-.419 2.399-1.915 2.64-8.497 3.779-12.028 3.059-1.795-.36-3.29.36-4.069 1.86-.778 1.559-.479 3.599.778 5.219.718.959 1.496 1.379 2.334 1.379 1.915 0 4.069-2.159 6.163-4.259l.42-.42c1.974-1.979 7.12-2.159 9.275-2.159 5.146 0 11.13 1.14 11.908 3.539.24.66.18 1.26-.12 1.68-.778 1.079-2.693.959-4.548.899h-1.256c-1.377 0-2.155.18-2.334.48-.718 1.62-4.01 2.939-6.343 2.939-1.496 0-2.514-.539-2.873-1.439-.06-.12-.18-.48-.837-.48-1.915 0-5.266 2.399-5.446 4.979-.12 1.799-1.137 2.819-1.735 3.479-.18.18-.42.48-.479.54.06-.12.36.24 2.095.719.418.12.837.18 1.196.18 1.317 0 2.035-.839 2.932-1.859 1.377-1.62 3.172-3.719 7.84-3.359 3.83.3 6.821-1.44 9.155-2.82 1.556-.899 2.753-1.619 3.89-1.619 1.017 0 1.795.6 2.394 1.74.658 1.319.598 2.639-.18 3.898-1.257 2.04-4.309 3.54-7.121 3.54-1.436 0-2.693-.42-3.53-1.2-.54-.48-1.078-.72-1.676-.72-.958 0-1.736.66-2.214 1.14-1.317 1.379-2.095 3.659-1.915 5.638.06.72-.12 1.26-.479 1.62-.419.42-1.017.66-1.855.66-1.675 0-4.129-.84-6.702-1.8-2.095-.72-4.189-1.499-5.745-1.679-.24-.06-.479-.06-.658-.06-1.077 0-1.257.419-1.376.599-.48 1.08.718 3.959 3.95 7.379 1.435 1.559 2.572 1.799 3.47 1.799.538 0 1.137-.12 1.735-.18.718-.12 1.377-.24 2.154-.24 1.377 0 2.633.42 4.01 1.26 1.735 1.14 2.872 2.279 3.77 3.239 1.615 1.62 2.154 2.159 4.069.36 1.316-1.2 1.316-1.68 1.316-1.74-.06-.3-.897-.599-1.555-.839-.659-.24-1.377-.54-2.035-.96-1.017-.66-1.436-1.86-1.077-3.119.359-1.14 1.496-2.52 3.71-2.52.957 0 2.035.3 3.172.84 2.872 1.38 6.343.48 8.258-1.979 1.436-1.86 1.914-4.259 1.256-6.839-1.855-7.378 5.087-10.917 12.148-13.316 1.017-.36 1.855-.54 2.513-.54 1.556 0 1.855.9 1.975 1.32.419 1.979-2.573 5.398-5.805 6.718-2.693 1.14-3.83 1.919-4.069 2.879-.18.84.539 2.1 2.214 3.959.778.84 1.616 1.2 2.633 1.2 1.077 0 2.274-.42 3.411-.84s2.334-.84 3.47-.84c1.018 0 1.856.36 2.574 1.08.718.72.957 1.32.838 1.919-.3 1.08-1.795 1.56-3.59 2.16-1.796.54-3.89 1.2-4.429 2.459-.479 1.08.3 2.4 1.137 3.719.778 1.32 1.616 2.64 1.257 3.959-.24.84-.898 1.44-2.035 1.98-.479.24-.957.36-1.376.36-2.334 0-2.753-3.24-3.112-6.299-.24-2.159-.538-4.559-1.496-4.978-1.137-.42-2.154-.24-2.693.599-.837 1.32-.598 3.839.718 6.899.778 1.859.958 2.879.599 3.479-.18.3-.479.42-.838.42-1.975 0-6.941-5.459-7.18-5.639-1.258-1.38-3.113-.96-3.711.54-.479 1.2-.12 2.579.957 3.719.539.54 1.078 1.2.838 1.859-.299.72-1.256.84-2.633.9-2.752.18-4.787.54-4.787 2.939 0 2.28.718 2.28 1.257 2.28.538 0 1.256-.18 2.094-.36 1.137-.24 2.454-.6 3.95-.6.718 0 1.316.06 1.974.18 3.292.72 3.95 3.659 4.548 6.478.479 2.1.898 4.199 2.454 5.399.419.3.598.36.658.36.479 0 .598-2.399.718-3.659.18-3.119.419-6.598 2.872-7.138.18-.06.42-.06.599-.06 1.735 0 2.154 1.799 2.573 3.839.658 2.939 1.496 6.958 6.522 8.637 1.915.6 3.052.9 3.65.9h.06c-.06-.18-.179-.42-.239-.66-.479-1.139-1.436-3.299.838-4.858.539-.36 1.137-.6 1.735-.6 2.334 0 4.608 2.699 7.002 5.518 1.915 2.22 3.89 4.559 5.565 5.039.3.06.598.12.778.12.538 0 .598-.24.658-.3.539-1.2-1.376-5.098-3.77-7.738-.598-.66-1.256-1.499-.957-2.219.18-.42.658-.66 1.436-.66 1.616 0 4.727.96 7.72 1.979 2.393.84 4.009 1.2 5.265 1.2 1.616 0 2.514-.6 2.873-1.979.12-.48.299-.78.538-1.02-.12-.06-.299-.06-.419-.12-.658-.18-1.436-.3-2.334-.42-.299-.06-.598-.06-.957-.12a38.934 38.934 0 0 0-3.95-.18c-2.812 0-5.684.18-8.018.3-2.214.12-3.95.18-4.608.12h-.06c-.598-.12-1.675-.84-1.436-17.635v-1.2c0-.48 0-1.02.06-1.56.06-2.759.12-5.758.24-9.297.12-4.139.358-8.878.598-14.217-.539-.12-1.077-.06-1.736 0h-1.855c-2.812 0-6.223-.24-7.66-2.159-.717-.9-.897-2.16-.538-3.659.18-.78.599-1.38 1.137-1.86-.658-.539-1.256-.959-1.915-1.439-.359-.18-.718-.54-1.077-.72zM165.171 349.365c.957-.54 1.436-1.08 1.556-1.62a1.73 1.73 0 0 0 0-.779c0-.12-.06-.18-.12-.3a2.97 2.97 0 0 0-.239-.66c-.06-.12-.18-.3-.3-.48a4.459 4.459 0 0 0-.418-.72c-.12-.18-.3-.42-.419-.66-.12-.18-.3-.42-.479-.599-.718.359-1.436.599-2.095.599-1.496 0-3.051-1.079-4.847-2.279-2.214-1.5-4.727-3.239-7.659-3.239h-4.787c-4.369 0-7.78.24-10.353 1.559-1.855.9-4.308.96-6.941.96-3.232.06-6.583.06-9.096 1.74-4.967 3.299-10.293 9.717-9.993 12.057.299 2.159-1.317 20.034-4.309 21.054-.299.12-.778.18-1.376.18-.599 0-1.377-.06-2.214-.12.119.24.239.42.418.66.24.36.479.66.719 1.02.299.42.598.839.957 1.259.299.36.598.72.898 1.14.359.48.777.9 1.196 1.38.359.36.659.779 1.018 1.139.419.48.897 1.02 1.376 1.5.359.36.658.72 1.017 1.08.479.54 1.018 1.019 1.496 1.499l1.018 1.02c.538.54 1.077 1.02 1.615 1.5.3.3.659.6.958.839.598.54 1.197.96 1.735 1.44.239.18.539.42.778.6.838.6 1.616 1.2 2.334 1.62 2.812 1.739 4.428 3.359 5.924 4.798 2.274 2.22 3.89 3.839 8.617 4.319 8.677.84 12.626 4.619 15.14 7.798 1.376 1.74 7.6 4.319 13.105 6.538 6.642 2.7 10.771 4.439 11.609 5.879.898 1.56-1.017 3.839-3.71 6.898-2.932 3.359-6.583 7.558-6.583 11.337 0 4.859-1.974 6.359-3.291 7.318-.778.6-1.137.9-1.137 1.44 0 .78 2.872.9 5.027 1.02 2.693.12 5.505.3 7.061 1.319.658.42 1.496.6 2.693.6.838 0 1.735-.12 2.693-.18 1.017-.12 2.094-.24 3.111-.24 1.736 0 3.052.3 4.249 1.02.598.36 1.197.54 1.915.54 1.496 0 3.052-.78 4.548-1.56 1.496-.779 2.872-1.499 4.189-1.499.299 0 .538.06.778.12 1.256.24 2.752-.9 4.308-2.28 1.735-1.439 3.531-2.939 5.565-2.999h.419c.598 0 1.137-.3 1.676-.96.598-.72 1.196-1.799 1.795-3.059 1.616-3.779 2.812-9.298 2.812-13.017 0-.719 0-1.379-.119-1.919 0-.12 0-.3-.06-.48v-1.02-.18c0-.36.06-.719.06-1.079.06-.36.06-.72.119-1.08l.18-1.26c.06-.36.12-.72.179-1.139.24-1.26.479-2.58.778-3.899.599-2.94 1.257-6.239 1.496-8.938v-.12c.06-.54.06-1.02.06-1.5v-.42c0-.3-.06-.539-.06-.779 0-.3-.06-.6-.06-.84 0-.06-.059-.12-.059-.18-.12-.42-.24-.78-.419-1.08-.18-.36-.479-.6-.778-.78-.838-.42-1.676-.599-2.633-.599-2.214 0-4.309 1.199-5.865 2.039-1.077.6-1.795 1.02-2.453 1.02-2.573 0-6.882-14.996-6.882-15.176-1.316-4.799-5.864-12.417-8.317-10.858-1.736 1.08-2.633.84-4.07.3-1.316-.48-3.351-1.259-7.779-1.439-4.009-.18-6.582-.54-7.779-2.1-1.257-1.679-.658-4.379.419-9.297 1.077-4.619-.718-8.398-2.035-11.097-.957-2.34-1.975-4.439.12-5.639zM-112.968 56.221c.359.3.778.54 1.197.84.359.24.658.48 1.017.72.419.3.838.54 1.257.84.359.24.718.48 1.077.66.479.3.898.54 1.376.84.3.18.659.36.958.54.479.24.897.48 1.316.719.3.18.599.36.898.48.419.24.778.36 1.197.54.239.12.538.24.778.36.419.18.778.3 1.137.42.179.06.359.12.478.18.48.12.898.24 1.197.24 1.795 0 3.172 1.38 4.728 2.999 1.077 1.08 2.333 2.339 3.83 3.239 1.436.84 3.29 1.32 5.206 1.32 2.214 0 3.71-.6 4.188-1.2.3-.36.718-.6 1.197-.6 1.795 0 4.608 2.82 9.156 7.978.12.12.24.3.359.42.898-.18 1.735-.3 2.513-.48.419-.06.958-.18 1.317-.24.778-.12 1.436-.12 2.094-.18.419 0 .838-.12 1.197-.12.598 0 1.017.06 1.496.12.359 0 .718 0 1.017.06a5.31 5.31 0 0 1 1.736.6c1.735 1.14 2.573 3.359 3.29 5.578.898 2.7 1.796 5.219 4.31 5.459 2.692.24 5.325 1.8 7.12 4.139.958 1.26 1.556 2.58 1.676 3.779.06.36.06.78 0 1.08-.18.96.838 1.8 1.975 2.819 1.496 1.32 3.41 2.939 3.111 5.518v.24c0 .24.12.42.3.66.658.72 2.273 1.2 4.487 1.44.719.06 1.556.12 2.394.12 3.411 0 6.523-.54 7.181-1.08 1.376-1.02 3.53-1.739 5.386-1.739 1.197 0 2.214.239 3.052.779.957.54 2.633.24 4.308-.18.778-.18 1.556-.36 2.274-.419h.12c.24 0 .419-.06.658-.06.3 0 .598.06.838.119.18.06.299.06.478.12 6.164 2.52 9.455 4.679 10.173 6.719.24.66.18 1.319-.18 1.919-.657 1.14-1.794 2.46-3.051 3.899-2.035 2.34-4.608 5.219-3.83 6.718.479.96 1.915 1.8 3.411 2.7.778.48 1.556.96 2.334 1.499.24.18.359.36.598.54.479.36.958.78 1.317 1.2h.299c2.154-.48 3.71-7.318 4.368-12.837.24-1.799.3-3.479.3-4.739 0-3.899 1.555-14.156 2.752-18.295 1.137-3.839-1.256-7.198-3.77-10.737-2.334-3.24-4.727-6.598-4.727-10.677 0-5.339 1.735-5.879 4.548-6.119 1.436-.12 2.992-.24 4.667-1.5 1.257-.899 1.855-1.739 1.736-2.339-.12-.48-.778-1.38-4.19-2.16-1.076-.239-2.094-1.079-2.931-2.458-1.078-1.8-1.437-3.96-.958-5.519.3-1.02 1.795-2.1 10.293-2.1 2.334 0 4.727.06 6.702.12 1.436.06 2.693.06 3.59.06.718 0 1.676-.12 2.633-.36.18-.06.36-.06.539-.12 1.017-.24 2.034-.48 3.112-.84.06 0 .12-.06.12-.06 1.076-.36 2.154-.719 3.17-1.139.06-.06.18-.06.24-.12 1.077-.42 2.035-.84 2.813-1.2l.478-.24c.3-.18.718-.36.898-.48.06 0 .06-.06.12-.06s.06-.06.12-.06v-.06c.239-.899.837-3.658-2.215-6.058-1.436-1.08-2.214-2.46-2.334-4.019-.239-2.639 1.377-5.158 2.813-6.778 1.855-2.1 0-4.139-3.112-7.378-.658-.72-1.376-1.38-2.034-2.16-3.71-4.198-.778-18.655 3.111-25.013.718-1.14.898-2.04.539-2.64-.36-.66-1.676-1.499-5.805-1.499-3.171 0-6.941.48-9.754.84-7.42.9-14.122-1.98-19.089-8.338-1.795-2.28-3.83-3.24-7.06-3.24-1.736 0-3.711.24-5.985.6-2.693.36-5.685.78-9.215.84h-.36c-2.991 0-5.265-.9-6.821-2.639a8.888 8.888 0 0 1-1.796-3.299c-.598-1.86-.777-3.899-.718-5.878.06-1.98.24-3.84.42-5.399l.119-.96c.24-2.46-1.436-3.719-3.052-4.978-1.376-1.02-2.752-2.1-2.752-3.72 0-1.739-1.137-2.459-3.71-2.459-.659 0-1.317.06-1.915.12-1.078.06-1.556-.3-1.676-.66-.539-1.14.778-3.179 3.231-6.298 1.736-2.16 1.736-3.96 1.855-8.278v-1.26c.12-3.659 3.351-6.778 6.822-10.137 1.795-1.68 3.59-3.42 4.967-5.219.479-.6 1.017-1.14 1.735-1.56.24-.18.599-.24.838-.42.479-.24.898-.479 1.436-.719.659-1.44 1.796-2.34 3.53-2.7 3.232-.66 5.506-2.099 5.746-3.718.18-1.2-.718-2.4-2.693-3.6-.718-.42-1.377-.6-2.035-.6-1.915 0-3.65 1.62-5.565 3.42-1.975 1.86-4.249 3.959-7.061 4.379-3.71.54-5.505 2.16-7.42 3.839-1.137 1.02-2.334 2.1-3.89 2.88-1.795.899-4.07 1.079-6.283 1.319-3.292.3-5.326.6-5.446 2.1-.06.599-.18 2.219-1.436 2.219-.658 0-1.316-.42-2.214-1.02-.898-.6-1.975-1.26-3.231-1.56-1.736-.42-5.566 1.86-8.498 4.979-2.094 2.28-3.291 4.499-3.171 5.938.06.6.12 1.14.18 1.74.358 3.779.777 7.678-5.087 11.457-4.608 2.94-7.84 7.678-10.413 11.517-1.017 1.5-1.855 2.76-2.692 3.72-.838 1.019-1.796 1.379-2.933 1.079-.478 1.98-1.077 3.239-1.914 3.899-1.616 1.14-5.626 5.278-8.498 8.218l.838.78c1.197 1.14 2.274 2.159 3.052 2.999 2.812 2.999 2.633 5.698 2.513 7.798-.06 1.08-.12 1.98.24 2.699 1.974 3.899 1.914 6.778-.18 8.098-.06.06-.419.36-.658 1.8-.718 4.918 1.197 15.895 3.111 17.995 2.334 2.579.958 5.038-1.077 8.757-.538 1.02-1.197 2.1-1.795 3.36-2.753 5.578-5.505 8.817-11.37 9.177-2.992.18-3.949 3.18-4.787 5.639-.538 1.62-.957 2.939-2.034 2.939-.838 0-1.796 2.28-2.095 4.739.299.24.599.48.958.72.658.3.957.54 1.256.78z" fill="#E3E8EC"/><path d="M67.57 208.402c-.119-.18-.478-.42-1.675-.42-1.256 0-2.932.3-4.727.54-1.915.3-3.95.66-5.625.66-3.89 0-7.899 2.399-12.088 4.979-1.077.659-2.214 1.379-3.351 2.039-2.394 1.38-4.368 2.159-6.044 2.819-2.154.84-3.71 1.5-5.206 2.94-3.171 3.179-7.84 4.378-11.968 2.879a33.91 33.91 0 0 0-1.795-.54c-.24-.06-.539-.12-.778-.18-.24-.06-.539-.12-.778-.12.06.18.12.3.24.48.598 1.32 1.256 2.699 1.974 4.199.12.24.24.48.359.78.778 1.499 1.556 3.059 2.334 4.498 1.735 3.36 3.291 6.239 3.89 7.918 1.376 3.779-.898 5.519-2.514 6.719-.419.3-.838.6-1.137.899-1.137 1.14.479 12.537 1.017 16.256.12.9.24 1.68.3 2.16.18 1.559-.898 3.539-1.975 5.518-1.137 2.16-2.334 4.319-1.377 5.159 1.676 1.44.36 4.019-1.077 6.778-.897 1.8-1.855 3.659-1.855 5.039 0 1.559 1.257 2.339 2.514 3.119 1.256.78 2.573 1.56 2.573 3.119 0 3.059-4.548 9.538-7.36 11.097-.24.12-.42.36-.599.6-.06.12-.06.24-.12.36-.06.18-.18.42-.239.66 0 .18 0 .36-.06.54 0 .24-.06.54-.06.84 0 .24.06.479.06.719 0 .3.06.54.06.84.06 0 .12.12.12.12.12.12.239.18.359.36.06.06.06.12.12.18.12.24.299.42.478.72.658 1.14 1.556 2.759 3.351 4.319.24.24.539.48.838.66 2.693 2.039 2.334 4.738 2.034 7.378-.299 2.339-.538 4.738 1.197 6.838 1.496 1.799 2.992 2.939 4.249 3.839 1.317.96 2.214 1.679 2.274 2.579 0 .78-.599 1.44-1.077 1.8-1.137.959-1.077 2.519-1.017 4.079.06 1.859.12 3.959-1.736 5.338-.658.54-.957 1.32-.838 2.46.3 2.759 2.992 6.538 5.446 7.618 2.094.899 2.393 3.359 2.693 5.938.299 2.34.598 4.799 2.214 6.418 2.393 2.4 2.573 6.779 2.753 10.258.06 1.799.12 3.539.538 4.439.06.06.12.3.718.3.12 0 .24-.06.36-.06.238 0 .538-.06.837-.18 1.376-.42 3.351-1.44 5.565-2.88 0 0 .06 0 .06-.06.658-.419 1.316-.899 2.035-1.379l.718-.54c.359-.3.718-.6 1.137-.84.478-.36.957-.72 1.436-1.14l.06-.06a49.414 49.414 0 0 0 3.171-2.939c.36-.36.778-.72 1.077-1.079 1.676-1.8 2.992-2.82 4.19-3.24.358-.12.777-.18 1.076-.18 1.077 0 1.915.54 2.813 1.14 1.077.72 2.274 1.5 4.189 1.74.777.12 1.555.18 2.333.3 5.326.599 10.891 1.259 13.405 6.298.418.78.837 1.2 1.137 1.2 1.137 0 2.752-3.36 3.77-5.579.718-1.56 1.376-2.879 1.974-3.599.599-.78 1.975-1.08 4.309-1.08 1.077 0 2.334.06 3.59.18 1.257.12 2.573.24 3.83.42l1.855.18c.479.06.958.12 1.436.12.359 0 .659.06.958.06.299 0 .658.06.897.06.539 0 .778-.06.958-.06h.06c1.137-.36 2.513-7.378 3.171-13.137.12-.839.18-1.619.24-2.339.179-1.979.239-3.599.119-4.379-.478-3.239 6.044-10.197 10.472-13.076 2.753-1.86 6.463-1.92 9.695-1.92 2.513 0 4.847-.06 6.462-.84 2.753-1.379 6.343-1.679 10.831-1.679h4.728c3.291 0 5.984 1.799 8.318 3.419 1.615 1.14 3.052 2.099 4.248 2.099.419 0 .898-.18 1.437-.48.179-.06.299-.12.478-.24 1.077-.719 2.155-1.919 2.873-3.359l.179-.36a6.76 6.76 0 0 0 .599-1.859c.059-.18.059-.3.119-.48.12-.78.18-1.62.06-2.399-.359-2.16.239-4.619.898-7.198.837-3.36 1.735-6.779.658-10.018-.838-2.519-2.394-4.079-3.95-5.578-1.914-1.92-3.949-3.899-3.949-7.618 0-5.039-1.376-6.239-7.42-6.239-.898 0-1.915 0-2.992.06-.718.06-1.496.06-2.155.06-10.232 0-12.686-3.959-12.925-7.258-.12-1.92-1.017-3.719-1.795-5.279-1.137-2.399-2.334-4.858.538-6.298.539-.24.838-.54.898-.84.179-.66-.479-1.739-1.197-2.819-1.077-1.68-2.394-3.719-1.975-6.119.659-3.899-1.556-5.698-4.069-7.797l-.897-.72c-.778-.66-2.753-.78-4.309-.78-.718 0-1.436 0-2.154.06-.778 0-1.496.06-2.214.06H117.657c-.179 0-.359 0-.538-.06h-.06c-.539-.06-1.017-.18-1.496-.3h-.12l-.239-.12c-.18-.06-.419-.18-.598-.3-.12-.06-.24-.18-.36-.24-.119-.12-.239-.18-.299-.3a1.271 1.271 0 0 1-.239-.36c-.06-.12-.12-.18-.12-.3-.119-.3-.179-.539-.179-.779 0-4.379-8.677-4.559-10.413-4.559-2.333 0-2.752-1.62-3.111-2.76-.36-1.199-.599-1.859-1.796-1.919h-.538c-2.214.18-3.172-.42-4.129-1.02-.898-.54-1.735-1.079-3.59-1.079-.48 0-1.078.06-1.676.119-4.428.6-7.54-.779-11.07-4.078-1.556-1.44-3.232-3.3-5.087-5.519-6.283-7.498-5.745-22.194-4.428-26.453.12-.48.12-.78 0-.96z" fill="#E3E8EC"/><path d="M2.405 324.412c.12-.12.299-.24.418-.3.42-.3.838-.54 1.078-.72 2.513-1.259 3.53-4.858 4.248-7.438.36-1.259.659-2.279 1.018-2.939.12-.18.239-.3.359-.42 0-.18-.06-.42-.06-.6 0-.24-.06-.54-.06-.779v-.96c0-.24 0-.48.06-.72.06-.36.18-.66.299-.96l.18-.54c.239-.42.598-.839 1.017-1.079 2.693-1.5 6.762-7.678 6.762-10.138 0-.899-.778-1.439-2.035-2.219-1.376-.84-3.052-1.86-3.052-4.079 0-1.62 1.018-3.659 1.975-5.579 1.137-2.279 2.334-4.618 1.316-5.458-1.675-1.38-.239-4.019 1.137-6.539.958-1.799 1.975-3.659 1.796-4.858-.06-.48-.18-1.2-.3-2.1-1.376-9.717-1.974-15.956-.718-17.215.36-.36.778-.66 1.257-1.02 1.616-1.2 3.291-2.459 2.154-5.459-.12-.42-.359-.899-.598-1.439-.778-1.68-1.975-3.959-3.231-6.299a86.358 86.358 0 0 1-1.257-2.399c-.06-.12-.12-.24-.18-.42s-.18-.36-.239-.48c-.419-.78-.778-1.559-1.197-2.339-.12-.18-.18-.36-.24-.54-.358-.72-.717-1.44-1.016-2.159-.12-.3-.24-.48-.36-.78-.239-.54-.478-1.08-.658-1.56h-.06a45.06 45.06 0 0 0-4.966-.3c-1.197 0-2.274.06-3.351.18-1.377.12-2.574.36-3.531.66-.12.06-.24.06-.359.12-.419.18-.838.18-1.257.12-.359-.06-.718-.3-1.017-.6-1.975-2.039-1.795-9.238-1.676-14.456.06-1.14.06-2.1.06-2.879 0-.84-.12-2.28-1.017-2.28-1.017 0-2.812 1.5-3.83 3.659-1.017 2.34-3.71 2.64-6.223 2.64-1.197 0-2.454-.06-3.83-.18a56.491 56.491 0 0 0-4.548-.18c-3.95 0-4.608-2.88-5.086-4.919-.479-1.92-.778-2.699-1.915-2.519-2.693.24-4.907-.36-6.164-1.74-.897-1.02-1.316-2.339-1.137-3.959.3-2.819-1.496-5.339-3.47-8.218a34.296 34.296 0 0 1-1.915-2.879l-.718-1.08c-2.574-4.019-5.207-8.098-2.813-10.977.898-1.08.718-1.979.479-3.179-.3-1.5-.658-3.359 1.496-5.459 1.316-1.379 2.693-2.039 3.77-2.579 1.795-.96 2.633-1.38 1.974-3.959-.718-2.819.659-5.039 1.975-7.138 1.077-1.68 2.154-3.479 2.334-5.639.24-3.359 2.693-4.139 5.505-5.098 1.975-.66 4.249-1.38 6.463-3.12 2.932-2.339 5.864-2.819 8.797-3.239 2.633-.42 5.086-.84 7.3-2.639.778-.66 1.556-1.14 2.334-1.44.778-.3 1.616-.48 2.453-.48 1.197 0 2.215.3 3.292.6.538.12 1.077.3 1.556.36l-.54-.54c-.179-.18-.358-.3-.597-.48L.07 128.803c-1.616-.96-3.172-1.92-3.83-3.179-1.077-2.16 1.496-5.099 4.01-7.978 1.196-1.38 2.333-2.64 2.932-3.719.179-.36.239-.66.12-1.02-.42-1.14-2.335-3.119-9.456-5.999-1.017-.419-2.274-.06-3.77.3-.957.24-1.915.42-2.812.48-.898.06-1.736-.06-2.334-.42-.658-.42-1.496-.599-2.513-.599-1.676 0-3.53.599-4.728 1.499-1.077.84-4.907 1.26-7.839 1.26-2.214 0-6.223-.24-7.66-1.92-.418-.48-.658-1.079-.598-1.739.24-1.98-1.256-3.299-2.752-4.559-1.317-1.14-2.633-2.28-2.334-3.84.18-1.079-.36-2.578-1.496-4.018-1.616-2.1-4.01-3.48-6.343-3.72-3.232-.299-4.249-3.298-5.266-6.178-.718-2.099-1.377-4.078-2.813-4.978-.359-.24-.897-.42-1.496-.48-.24-.06-.538 0-.778-.06-.478-.06-.957-.06-1.555-.06-.36 0-.778.06-1.197.12-.599.06-1.197.12-1.855.18-.48.06-1.078.18-1.616.3-.539.12-1.017.18-1.556.3.24.3.479.54.718.84.18.18.36.42.479.6.419.48.778.96 1.077 1.379.18.24.419.54.598.78.24.36.42.72.599 1.02.12.24.299.48.359.72.12.36.12.66.18.96v.18c.06.119.06.239.06.419-.06.9-.6 1.62-1.437 2.4-.12.06-.12.18-.24.24-1.196.959-1.555 1.619-1.794 2.399-.06.3-.18.6-.24.9-.419 1.799-1.017 4.498-5.206 10.077-6.582 8.818-17.414 11.817-23.876 13.676-.898.24-1.736.48-2.454.72-4.428 1.32-6.941 8.278-9.395 14.996-.718 1.98-1.436 4.079-2.214 5.939-1.556 3.659-3.112 5.398-4.907 5.398-1.975 0-3.77-2.219-5.565-4.679-1.137-1.499-2.035-1.739-2.813-1.739-.538 0-1.077.12-1.675.24-.658.12-1.317.3-2.035.3-1.316 0-2.393-.48-3.53-1.5-3.232-2.999-2.992-4.019-1.257-5.998.359-.42.778-.9 1.197-1.5.239-.3.299-.72.299-1.14 0-.12-.06-.3-.12-.479-.059-.3-.059-.6-.239-.96-.06-.18-.239-.42-.359-.66a9.01 9.01 0 0 0-.598-1.02c-.18-.24-.419-.48-.599-.72-.239-.3-.478-.659-.838-.959-3.949 1.019-8.078 6.478-10.292 11.217-1.556 3.299 1.197 9.177 3.171 13.436.838 1.8 1.616 3.419 1.856 4.499.239.9.179 1.5-.18 1.92-.419.599-1.197.599-1.915.659-1.137.06-1.795.12-2.034 1.2-.36 1.86 4.727 4.979 8.796 7.438 2.035 1.26 3.95 2.4 5.446 3.539 2.752 2.04 5.266 6.179 7.659 10.198 1.855 2.999 3.77 6.178 5.625 8.158 3.112 3.359 4.249 6.358 6.164 11.756.838 2.34 1.915 5.219 3.351 8.758 4.608 11.217 14.002 30.772 20.525 39.11 6.642 8.458 9.634 15.116 7.959 17.755-1.317 2.1.419 8.278 4.847 11.338 1.436 1.019 2.813 2.159 4.368 3.539 3.53 3.059 7.96 6.898 16.456 11.217 15.858 7.918 35.426 18.535 38.478 23.814 2.813 4.858 11.49 9.597 14.72 11.397.42.24.719.419.958.539.599.36.838 1.08.958 1.86.359-.3.538-.42.778-.54zM-19.976-80.063c-.299.12-.538.24-.837.36-.18.12-.42.18-.599.3-.538.36-1.017.78-1.376 1.26-1.376 1.859-3.232 3.658-5.087 5.398-3.29 3.119-6.403 6.118-6.522 9.357v1.26c-.12 4.439-.12 6.418-2.095 8.938-2.513 3.179-3.111 4.438-3.111 4.978 0 .06 0 .12.06.18 0 .06.239.12.598.06.658-.06 1.376-.12 2.035-.12 3.171 0 4.787 1.2 4.787 3.6 0 1.14 1.077 1.919 2.334 2.879 1.735 1.26 3.83 2.879 3.53 5.938l-.12.96c-.179 1.32-.359 3.12-.418 4.979-.06 3.119.359 6.538 2.214 8.697 1.376 1.5 3.35 2.28 6.044 2.28h.299c3.47-.06 6.463-.48 9.096-.84 2.333-.3 4.308-.6 6.103-.6 3.53 0 5.925 1.08 7.9 3.66 4.727 6.058 11.01 8.817 18.071 7.917 2.813-.36 6.642-.84 9.874-.84 3.83 0 5.984.66 6.762 2.04.538.96.359 2.22-.539 3.719-4.01 6.538-6.403 20.155-3.231 23.694.658.72 1.316 1.44 1.975 2.1 2.992 2.998 5.804 5.878 3.171 8.877-1.795 2.1-2.693 4.199-2.573 5.938.12 1.26.778 2.34 1.915 3.24 2.394 1.859 3.291 4.318 2.633 7.198l-.06.12c-.06.3-.24.54-1.496 1.14.12.12.18.24.3.36 1.136 1.199 2.094 2.459 2.991 3.658.12.12.18.3.3.42.837 1.2 1.555 2.4 2.214 3.42 1.316 2.099 2.453 3.958 3.77 4.978.538.42 1.017.84 1.495 1.2.778.6 1.377 1.14 1.915 1.5.838.6 1.556.959 2.215.959.478 0 1.077-.18 1.735-.54l.18-.12c1.795-1.02 3.35-1.92 4.966-1.92.898 0 1.735.3 2.573.84 1.796 1.2 4.668-1.26 7.66-4.019l.838-.72c1.795-1.559 3.65-1.799 5.206-1.979 1.735-.18 2.872-.36 3.41-2.16 1.377-4.558 3.77-6.778 8.02-7.557 2.154-.36 3.17-1.86 3.051-3.18-.06-.66-.419-1.32-1.376-1.32-.718 0-1.616.3-2.513.6-.898.3-1.736.6-2.514.6-.359 0-.718-.06-.957-.18l-.18-.18c-.18-.12-.359-.24-.478-.42-.12-.18-.18-.42-.24-.6 0-.06-.06-.12-.06-.18-.18-.479-.239-1.019-.239-1.799 0-2.459-.838-3.299-1.735-4.199-.838-.84-1.855-1.859-1.855-4.138 0-4.5-.48-6.959-4.907-9.538-1.137-.66-1.616-1.38-1.436-2.1.359-1.32 3.111-1.859 5.385-1.859.957 0 4.13.12 5.446 1.44.897.9 3.052 1.08 5.146 1.32 2.992.24 6.044.54 6.582 2.939.36 1.74 1.676 2.819 2.693 2.819.898 0 1.376-.84 1.376-2.28 0-4.858 5.625-6.538 9.814-5.698 2.573.54 7.361-2.04 11.131-4.019 1.974-1.02 3.71-1.92 4.907-2.34.778-.24 1.316-.9 1.795-1.679.299-.48.598-1.08.897-1.68.06-.18.18-.3.24-.48.06-.12.119-.3.239-.42l-.538-.72c-.12-.12-.18-.3-.3-.419-.179-.24-.418-.54-.598-.84-.18-.24-.299-.42-.479-.66-.179-.24-.419-.54-.598-.78-.18-.24-.419-.54-.599-.78l-.538-.719c-.18-.24-.419-.54-.599-.78-.239-.3-.478-.54-.658-.84a4.183 4.183 0 0 1-.478-.6c-.24-.3-.479-.6-.778-.9-.12-.12-.24-.3-.359-.42-.24-.299-.479-.539-.719-.839l-.239-.24c-.299-.3-.598-.6-.838-.78-1.974-1.68-.897-3.119 0-4.319.718-.96 1.437-1.919 1.257-3.179-.239-1.62-.299-3.359.718-4.619 1.017-1.26 2.932-1.979 5.984-2.219 2.274-.18 3.71-.96 3.95-2.22.299-1.319-.659-2.939-2.274-3.898-.898-.54-1.437-1.32-1.437-2.34 0-2.699 3.591-6.238 6.164-7.678.299-.18.658-.48 1.017-.84.12-.12.24-.3.419-.42.24-.24.479-.54.718-.84.18-.18.3-.42.479-.659.239-.36.479-.66.718-1.08.18-.24.299-.54.479-.84.179-.3.359-.6.538-.96-4.368-1.499-9.993-1.859-14.002-1.859-1.436 0-2.932.06-4.428.12h-.36c-.359 0-1.316 0-1.675-.72-.479-.9.419-2.16 1.735-4.019 1.377-1.98 3.172-4.438 3.292-6.778.179-3.779-9.036-5.158-15.14-6.118-1.616-.24-3.052-.48-4.129-.72-3.112-.66-4.069-2.58-3.95-4.139.18-2.04 2.215-4.139 5.805-4.319.718-.06 1.077-.12 1.257-.18-.718-.72-4.847-2.16-9.395-2.16-1.018 0-1.975.06-2.933.18-7.779 1.14-18.91 5.52-25.432 9.058a5.53 5.53 0 0 1-2.633.66c-3.052 0-6.462-2.04-10.113-4.139-3.53-2.1-7.18-4.259-10.292-4.259-.719 0-1.437.12-2.035.36-3.112 1.26-6.762 1.98-9.934 1.98-2.273 0-5.325-.36-7.06-2.16-.838-.9-1.257-1.98-1.138-3.299.18-3.059-.658-5.638-2.333-7.378-1.736-1.8-4.19-2.64-7.42-2.34-4.31.3-5.745-2.099-7.062-4.198-1.017-1.68-1.915-3.18-4.189-3.18-.837 0-1.436.18-1.735.54-.539.6-.36 1.74-.24 2.94.24 1.8.48 4.079-1.615 5.038-.898.42-2.214.84-3.77 1.44-4.967 1.74-13.285 4.679-13.883 8.518-.36 2.22.957 5.159 2.334 8.278 1.795 4.019 3.65 8.157 2.034 11.337-.897 1.74-2.453 2.699-4.488 2.699-3.89 0-8.736-3.36-10.651-7.378-1.616-3.42 1.017-7.618 3.35-11.277 1.557-2.46 3.112-4.979 2.514-6.119-1.257-2.219-2.454-5.698-2.035-8.397zM178.635 3.256c.658 1.32.718 2.519.12 3.659-1.376 2.519-5.505 3.179-6.762 3.359-1.855.24-2.394 3.059-2.932 5.818-.419 2.28-.838 4.38-1.975 5.519-.12.12-.18.24-.18.42.06 1.08 2.334 3.119 4.548 5.099 2.693 2.399 5.805 5.158 6.762 7.737.12.42.359.84.539 1.38a71.7 71.7 0 0 0 2.633 5.219l.179.36.359.72a243.304 243.304 0 0 0 3.95 6.958c.12.06.239.06.419.12.419.12.838.18 1.256.3.419.06.778.12 1.137.18.3.06.599.06.898.12.359 0 .658.06.958.06.598 0 1.077-.12 1.436-.3 1.376-.78 1.556-2.34 1.795-4.02.299-2.219.658-4.678 4.069-4.438 1.855.18 4.069-.18 6.164-.54 1.735-.24 3.411-.54 4.847-.54 1.316 0 3.171.18 4.129 1.68.239.42.538.6.837.96.24-.36.479-.78.719-1.08.059-.12.179-.24.239-.36.359-.54.718-1.08 1.017-1.56.06-.06.06-.12.12-.18.299-.48.598-.96.838-1.32v-.06c.239-.36.419-.66.478-.9.838-1.679.898-11.576-1.436-17.215-2.453-5.878-.598-13.796 2.573-16.436l.12-.12c0-.06.06-.12.12-.12l.06-.06c.059-.06.059-.12.119-.24 0-.06.06-.06.06-.12.06-.06.12-.24.12-.3.06-.06.06-.18.119-.24.06-.12.12-.3.18-.48.06-.12.06-.179.12-.299.059-.18.119-.42.239-.6.06-.18.12-.3.179-.48.06-.24.18-.54.24-.78.06-.18.12-.36.179-.6.12-.3.18-.72.3-1.08.059-.179.119-.299.119-.479-4.069-1.62-7.779-2.88-11.07-2.88-.479 0-.958.06-1.436.12-1.915.24-3.83.66-5.685 1.08-2.573.54-4.967 1.08-7.061 1.08-2.274 0-3.89-.66-4.847-2.1-2.215-3.178-5.626-3.178-9.216-.18-.359.3-.778.48-1.257.48l-.119.3c-1.137 2.94-2.155 5.76-1.317 7.379z" fill="#E3E8EC"/><path d="M140.816-34.475c-.18.24-.36.54-.539.72-.299.36-.539.66-.838.96-.119.18-.299.36-.419.48-.419.36-.778.72-1.137.9-2.573 1.499-5.625 4.738-5.625 6.717 0 .6.3 1.08.838 1.38 2.035 1.14 3.231 3.3 2.813 5.099-.24 1.02-1.197 2.819-4.967 3.059-2.693.24-4.369.78-5.206 1.8-.659.78-.778 1.919-.539 3.778.24 1.74-.718 3-1.436 3.96-1.017 1.38-1.317 1.859-.18 2.819.24.18.539.48.838.78.06.06.18.18.24.3.239.24.478.54.718.84.119.12.299.3.419.48.239.239.478.539.718.839.179.18.359.42.538.66.18.24.419.54.599.78l.718.9c.119.18.299.36.419.6.299.419.598.779.897 1.199.06.06.06.12.12.18.718.96 1.436 1.92 2.034 2.759.24-.36.479-.72.778-1.02.12-.12.3-.24.419-.36.299-.3.718-.48 1.137-.66.12-.06.24-.12.419-.18.18-.06.359-.06.479-.12.12 0 .179 0 .299-.06h.838c.179 0 .359 0 .538.06 3.411.48 3.591 3.48 3.71 6.12.12 2.218.24 4.318 1.975 5.098 2.095.96 3.471 2.999 3.71 5.578.3 2.64-.658 5.219-2.393 6.539-1.077.78-1.915 3.059-2.214 5.998-.479 4.859.598 11.817 5.026 16.796 4.787 5.278 8.438 6.058 10.233 6.058 1.436 0 2.633-.48 3.291-1.26.838-1.08 2.454-1.14 4.129-1.26 1.915-.12 3.83-.3 4.608-1.799.778-1.56 1.735-1.8 2.633-1.8h.538c1.018 0 2.155.12 3.651-1.559.837-.9 1.974-1.38 3.59-1.38.838 0 1.736.12 2.693.3.239.06.479.12.778.18.479.12 1.017.24 1.496.36-.658-1.14-1.317-2.34-2.035-3.539-.119-.18-.179-.36-.299-.54-.598-1.14-1.257-2.22-1.795-3.299-.12-.18-.18-.36-.299-.54a49.655 49.655 0 0 1-1.556-3.059c-.06-.12-.06-.18-.12-.24-.479-.96-.838-1.86-1.137-2.58-.838-2.339-3.83-4.978-6.403-7.317-2.693-2.4-4.847-4.32-4.907-5.879 0-.48.18-.9.479-1.2.898-.9 1.317-2.939 1.676-4.918.598-3.12 1.256-6.418 3.889-6.718 2.274-.24 5.027-1.14 5.924-2.76.419-.78.359-1.62-.119-2.639-1.018-2.04 0-4.919 1.197-8.278l.059-.12c-1.914-.66-3.949-3.179-6.103-5.818-1.915-2.34-4.069-5.039-5.386-5.039-2.214 0-4.428-1.02-5.864-2.7-.958-1.139-1.975-3.059-1.437-5.878.419-2.34-1.795-3.599-5.385-5.458-2.573-1.32-5.505-2.82-7.72-5.279-.957-1.08-2.393-1.98-4.188-2.76-.18.36-.419.72-.659 1.08l-.538.9c-.18.24-.419.6-.658.96zM220.284 2.415c-.12.24-.18.48-.24.66 0 .06-.06.18-.06.24-.059.18-.179.36-.239.54 0 .06-.06.12-.06.12l-.179.36-.06.06c-.06.12-.12.18-.18.24l-.179.18c-2.573 2.099-4.608 9.417-2.214 15.115 2.453 5.879 2.453 16.076 1.436 18.176-.12.24-.359.6-.598 1.08-.12.18-.3.42-.419.66-.18.3-.3.54-.539.839-.179.3-.359.6-.538.84-.18.3-.36.6-.599.9-.12.24-.299.42-.419.66-.179.3-.359.6-.538.84.179.18.299.419.478.539.18.12.3.3.479.42.718.54 1.556.96 2.394 1.26.179.06.299.12.478.12.898.24 1.856.36 2.873.3.239 0 .479-.06.718-.06 1.077-.12 2.274-.3 3.53-.72 1.975-.6 3.651-.78 4.967-.78h1.915c1.496.06 2.693.12 3.77-.42 1.077-.6 2.035-1.8 2.872-4.439.3-.96.778-1.98 1.257-3 .18-.359.419-.719.599-1.079.359-.66.718-1.32 1.196-2.04.3-.42.599-.84.898-1.319l1.257-1.8c.359-.48.658-.9 1.017-1.32.419-.599.897-1.139 1.316-1.679.359-.42.718-.84 1.018-1.26.478-.54.897-1.08 1.316-1.559.359-.42.658-.72.958-1.14.418-.48.837-.96 1.256-1.38.299-.36.599-.6.838-.9.419-.419.778-.839 1.137-1.199.239-.24.359-.42.598-.6l.539-.54c-2.274-1.2-4.847-3.838-7.779-6.838-4.369-4.499-9.335-9.597-14.242-10.557-3.531-.72-7.062-2.16-10.413-3.48l-.239-.12c-.06.3-.179.54-.239.84-.06.24-.12.42-.18.66-.12.36-.239.66-.299 1.02-.06.18-.12.3-.18.48-.119.3-.179.6-.299.84-.06 0-.119.12-.179.24z" fill="#E3E8EC"/><path d="M238.703 191.345h-2.522l-.014-1.06h2.29c.378 0 .709-.064.991-.191.283-.128.502-.31.656-.547.16-.242.24-.529.24-.861 0-.365-.071-.661-.212-.889a1.173 1.173 0 0 0-.636-.506c-.282-.109-.642-.164-1.08-.164h-1.941V196h-1.32v-9.953h3.261c.51 0 .966.052 1.367.157.401.1.741.26 1.019.479.282.214.497.487.642.82.146.333.219.731.219 1.196 0 .41-.105.782-.314 1.114-.21.329-.502.597-.875.807-.37.21-.802.344-1.299.403l-.472.322zm-.061 4.655h-2.981l.745-1.073h2.236c.419 0 .774-.073 1.066-.219.296-.146.522-.351.677-.615a1.87 1.87 0 0 0 .232-.95c0-.37-.066-.689-.198-.957a1.374 1.374 0 0 0-.622-.623c-.283-.145-.647-.218-1.094-.218h-1.88l.014-1.06h2.57l.281.383c.478.041.884.178 1.216.41.333.228.586.52.759.875.178.356.267.748.267 1.176 0 .62-.137 1.144-.41 1.572-.269.424-.65.748-1.142.971-.492.219-1.071.328-1.736.328zm6.309-6.234V196h-1.264v-7.396h1.23l.034 1.162zm2.311-1.204l-.007 1.176a1.852 1.852 0 0 0-.301-.041 3.245 3.245 0 0 0-.314-.013c-.292 0-.55.045-.773.136a1.602 1.602 0 0 0-.567.383c-.155.164-.278.36-.369.588a2.79 2.79 0 0 0-.171.738l-.356.205c0-.446.044-.866.13-1.257.091-.392.23-.739.417-1.039.187-.306.424-.543.711-.711.292-.174.638-.26 1.039-.26.091 0 .196.011.315.034.118.018.2.039.246.061zm5.257 6.173v-3.807c0-.292-.06-.545-.178-.759a1.163 1.163 0 0 0-.52-.506c-.232-.118-.519-.178-.861-.178-.319 0-.599.055-.841.164a1.46 1.46 0 0 0-.56.431.94.94 0 0 0-.199.574h-1.264c0-.264.068-.526.205-.786.137-.26.332-.494.588-.704a2.93 2.93 0 0 1 .929-.506 3.686 3.686 0 0 1 1.217-.191c.538 0 1.012.091 1.422.273.415.183.738.458.971.827.237.365.355.823.355 1.374v3.446c0 .246.021.508.062.786.045.278.111.517.198.718V196h-1.319a2.383 2.383 0 0 1-.151-.581 4.745 4.745 0 0 1-.054-.684zm.218-3.219l.014.888h-1.278c-.36 0-.682.03-.964.089-.283.055-.52.139-.711.253a1.208 1.208 0 0 0-.438.431c-.1.168-.15.367-.15.594 0 .233.052.445.157.636.105.192.262.344.472.458.214.11.476.164.786.164.387 0 .729-.082 1.025-.246.297-.164.531-.364.704-.601.178-.237.274-.467.288-.691l.54.609a1.842 1.842 0 0 1-.26.635 3.069 3.069 0 0 1-1.401 1.197c-.32.136-.68.205-1.081.205-.501 0-.941-.098-1.319-.294a2.257 2.257 0 0 1-.875-.786 2.083 2.083 0 0 1-.308-1.115c0-.396.078-.745.233-1.046.155-.305.378-.558.67-.758.291-.205.642-.36 1.053-.465.41-.105.868-.157 1.374-.157h1.469zm8.545 3.445V196h-5.38v-1.039h5.38zm-.198-5.462L256.189 196h-.772v-.93l4.86-6.466h.807v.895zm-.561-.895v1.045h-5.051v-1.045h5.051zm3.569 0V196h-1.272v-7.396h1.272zm-1.367-1.962c0-.205.061-.379.184-.52.128-.141.315-.212.561-.212.241 0 .426.071.553.212a.73.73 0 0 1 .199.52.71.71 0 0 1-.199.505c-.127.137-.312.206-.553.206-.246 0-.433-.069-.561-.206a.742.742 0 0 1-.184-.505zm4.771-1.142V196h-1.271v-10.5h1.271z" fill="#66716E"/><circle opacity=".5" cx="288" cy="235" r="15" fill="#00CBCA"/><circle opacity=".5" cx="341" cy="319" r="10" fill="#00CBCA"/><circle opacity=".5" cx="291.5" cy="424.5" r="7.5" fill="#00CBCA"/><circle opacity=".5" cx="247" cy="442" r="5" fill="#00CBCA"/><circle opacity=".5" cx="313" cy="356" r="10" fill="#00CBCA"/><circle opacity=".5" cx="326" cy="356" r="15" fill="#00CBCA"/><circle opacity=".5" cx="355.5" cy="361.5" r="24.5" fill="#00CBCA"/><circle opacity=".5" cx="331" cy="371" r="15" fill="#00CBCA"/><circle opacity=".5" cx="310.5" cy="369.5" r="11.5" fill="#00CBCA"/><circle opacity=".5" cx="380" cy="367" r="8" fill="#00CBCA"/><circle opacity=".5" cx="345.5" cy="309.5" r="6.5" fill="#00CBCA"/><circle opacity=".5" cx="230.5" cy="342.5" r="3.5" fill="#00CBCA"/><circle opacity=".5" cx="355.5" cy="361.5" r="3.5" fill="#00CBCA"/><circle opacity=".5" cx="419" cy="298" r="5" fill="#00CBCA"/><g filter="url(#c)"><rect x="230" y="247" width="129" height="59" rx="4" fill="#fff" shape-rendering="crispEdges"/><path d="M251.703 265.845h-2.522l-.014-1.06h2.29c.378 0 .709-.064.991-.191.283-.128.502-.31.656-.547.16-.242.24-.529.24-.861 0-.365-.071-.661-.212-.889a1.173 1.173 0 0 0-.636-.506c-.282-.109-.642-.164-1.08-.164h-1.941v8.873h-1.32v-9.953h3.261c.51 0 .966.052 1.367.157.401.1.741.26 1.019.479.282.214.497.487.642.82.146.333.219.731.219 1.196 0 .41-.105.782-.314 1.114-.21.329-.502.597-.875.807-.37.21-.802.344-1.299.403l-.472.322zm-.061 4.655h-2.981l.745-1.073h2.236c.419 0 .774-.073 1.066-.219.296-.146.522-.351.677-.615a1.87 1.87 0 0 0 .232-.95c0-.37-.066-.689-.198-.957a1.374 1.374 0 0 0-.622-.623c-.283-.145-.647-.218-1.094-.218h-1.88l.014-1.06h2.57l.281.383c.478.041.884.178 1.216.41.333.228.586.52.759.875.178.356.267.748.267 1.176 0 .62-.137 1.144-.41 1.572-.269.424-.65.748-1.142.971-.492.219-1.071.328-1.736.328zm6.309-6.234v6.234h-1.264v-7.396h1.23l.034 1.162zm2.311-1.204l-.007 1.176a1.852 1.852 0 0 0-.301-.041 3.245 3.245 0 0 0-.314-.013c-.292 0-.55.045-.773.136a1.602 1.602 0 0 0-.567.383c-.155.164-.278.36-.369.588a2.79 2.79 0 0 0-.171.738l-.356.205c0-.446.044-.866.13-1.257.091-.392.23-.739.417-1.039.187-.306.424-.543.711-.711.292-.174.638-.26 1.039-.26.091 0 .196.011.315.034.118.018.2.039.246.061zm5.257 6.173v-3.807c0-.292-.06-.545-.178-.759a1.163 1.163 0 0 0-.52-.506c-.232-.118-.519-.178-.861-.178-.319 0-.599.055-.841.164a1.46 1.46 0 0 0-.56.431.94.94 0 0 0-.199.574h-1.264c0-.264.068-.526.205-.786.137-.26.332-.494.588-.704a2.93 2.93 0 0 1 .929-.506 3.686 3.686 0 0 1 1.217-.191c.538 0 1.012.091 1.422.273.415.183.738.458.971.827.237.365.355.823.355 1.374v3.446c0 .246.021.508.062.786.045.278.111.517.198.718v.109h-1.319a2.383 2.383 0 0 1-.151-.581 4.745 4.745 0 0 1-.054-.684zm.218-3.219l.014.888h-1.278c-.36 0-.682.03-.964.089-.283.055-.52.139-.711.253a1.208 1.208 0 0 0-.438.431c-.1.168-.15.367-.15.594 0 .233.052.445.157.636.105.192.262.344.472.458.214.11.476.164.786.164.387 0 .729-.082 1.025-.246.297-.164.531-.364.704-.601.178-.237.274-.467.288-.691l.54.609a1.842 1.842 0 0 1-.26.635 3.069 3.069 0 0 1-1.401 1.197c-.32.136-.68.205-1.081.205-.501 0-.941-.098-1.319-.294a2.257 2.257 0 0 1-.875-.786 2.083 2.083 0 0 1-.308-1.115c0-.396.078-.745.233-1.046.155-.305.378-.558.67-.758.291-.205.642-.36 1.053-.465.41-.105.868-.157 1.374-.157h1.469zm7.342 2.522c0-.182-.041-.351-.123-.506-.077-.159-.239-.303-.485-.43-.242-.133-.606-.247-1.094-.342a8.618 8.618 0 0 1-1.114-.308 3.347 3.347 0 0 1-.841-.431 1.794 1.794 0 0 1-.526-.594 1.65 1.65 0 0 1-.185-.8c0-.292.064-.567.191-.827.133-.26.317-.49.554-.691.242-.2.531-.357.868-.471a3.506 3.506 0 0 1 1.128-.171c.593 0 1.098.105 1.518.314.419.21.74.49.964.841.223.346.335.732.335 1.155h-1.265c0-.205-.062-.403-.185-.594a1.365 1.365 0 0 0-.526-.486c-.228-.127-.508-.191-.841-.191-.351 0-.636.055-.854.164a1.093 1.093 0 0 0-.472.403 1.013 1.013 0 0 0-.075.889.81.81 0 0 0 .26.294c.123.086.296.168.519.246.223.077.508.155.855.232.606.137 1.105.301 1.497.493.392.191.683.426.875.704.191.278.287.615.287 1.011a1.97 1.97 0 0 1-.786 1.586 2.873 2.873 0 0 1-.903.451 4.022 4.022 0 0 1-1.169.158c-.651 0-1.203-.116-1.654-.349-.451-.232-.793-.533-1.025-.902a2.155 2.155 0 0 1-.349-1.169h1.271c.019.346.119.622.301.827.183.2.406.344.67.431.265.082.527.123.786.123.347 0 .636-.046.868-.137a1.22 1.22 0 0 0 .541-.376.872.872 0 0 0 .184-.547zm4.3-5.434v7.396h-1.272v-7.396h1.272zm-1.367-1.962c0-.205.061-.379.184-.52.128-.141.315-.212.561-.212.241 0 .426.071.554.212a.733.733 0 0 1 .198.52.713.713 0 0 1-.198.505c-.128.137-.313.206-.554.206-.246 0-.433-.069-.561-.206a.742.742 0 0 1-.184-.505zm4.771-1.142v10.5h-1.271V260h1.271zm8.135 5.749v1.039h-3.336v-1.039h3.336zm7.595 4.751h-2.078l.013-1.073h2.065c.711 0 1.303-.148 1.777-.445.474-.3.829-.72 1.066-1.257.242-.543.363-1.176.363-1.901v-.608c0-.57-.069-1.076-.205-1.518a3.091 3.091 0 0 0-.602-1.128 2.542 2.542 0 0 0-.971-.704 3.342 3.342 0 0 0-1.305-.239h-2.242v-1.08h2.242a4.69 4.69 0 0 1 1.784.328c.538.214 1 .526 1.388.937.392.405.692.897.902 1.476.21.574.314 1.221.314 1.941v.595c0 .72-.104 1.37-.314 1.948a3.969 3.969 0 0 1-2.331 2.407c-.552.214-1.174.321-1.866.321zm-1.374-9.953v9.953h-1.32v-9.953h1.32zm9.05 2.557v7.396h-1.271v-7.396h1.271zm-1.367-1.962c0-.205.062-.379.185-.52.127-.141.314-.212.56-.212.242 0 .426.071.554.212a.733.733 0 0 1 .198.52.713.713 0 0 1-.198.505c-.128.137-.312.206-.554.206-.246 0-.433-.069-.56-.206a.742.742 0 0 1-.185-.505zm7.704 7.396c0-.182-.041-.351-.123-.506-.077-.159-.239-.303-.485-.43-.242-.133-.606-.247-1.094-.342a8.663 8.663 0 0 1-1.114-.308 3.364 3.364 0 0 1-.841-.431 1.794 1.794 0 0 1-.526-.594 1.661 1.661 0 0 1-.185-.8c0-.292.064-.567.192-.827.132-.26.316-.49.553-.691.242-.2.531-.357.868-.471a3.514 3.514 0 0 1 1.128-.171c.593 0 1.099.105 1.518.314.419.21.741.49.964.841.223.346.335.732.335 1.155h-1.265c0-.205-.061-.403-.184-.594a1.368 1.368 0 0 0-.527-.486c-.228-.127-.508-.191-.841-.191-.35 0-.635.055-.854.164a1.105 1.105 0 0 0-.472.403 1.021 1.021 0 0 0-.075.889.81.81 0 0 0 .26.294c.123.086.296.168.519.246.224.077.508.155.855.232.606.137 1.105.301 1.497.493.392.191.683.426.875.704.191.278.287.615.287 1.011a1.97 1.97 0 0 1-.786 1.586 2.879 2.879 0 0 1-.902.451 4.027 4.027 0 0 1-1.169.158c-.652 0-1.204-.116-1.655-.349-.451-.232-.793-.533-1.025-.902a2.155 2.155 0 0 1-.349-1.169h1.272c.018.346.118.622.301.827.182.2.405.344.669.431.265.082.527.123.787.123.346 0 .635-.046.868-.137.237-.091.417-.217.54-.376a.872.872 0 0 0 .184-.547zm6.023-5.434v.97h-3.999v-.97h3.999zm-2.646-1.798h1.265v7.362c0 .251.039.44.116.567a.556.556 0 0 0 .301.253c.123.041.255.062.396.062.105 0 .215-.009.329-.028.118-.022.207-.041.266-.054l.007 1.032a2.87 2.87 0 0 1-.396.089c-.16.032-.354.048-.582.048-.309 0-.594-.062-.854-.185a1.373 1.373 0 0 1-.622-.615c-.15-.292-.226-.684-.226-1.176v-7.355zm5.394 2.96v6.234h-1.265v-7.396h1.231l.034 1.162zm2.31-1.204l-.006 1.176a1.852 1.852 0 0 0-.301-.041 3.253 3.253 0 0 0-.315-.013c-.291 0-.549.045-.772.136a1.593 1.593 0 0 0-.567.383c-.155.164-.278.36-.37.588a2.87 2.87 0 0 0-.171.738l-.355.205c0-.446.043-.866.13-1.257.091-.392.23-.739.417-1.039.187-.306.424-.543.711-.711.291-.174.638-.26 1.039-.26.091 0 .196.011.314.034a.948.948 0 0 1 .246.061zm2.543.042v7.396h-1.271v-7.396h1.271zm-1.367-1.962c0-.205.062-.379.185-.52.127-.141.314-.212.56-.212.242 0 .426.071.554.212a.733.733 0 0 1 .198.52.713.713 0 0 1-.198.505c-.128.137-.312.206-.554.206-.246 0-.433-.069-.56-.206a.742.742 0 0 1-.185-.505zm6.494 1.962v.97h-3.999v-.97h3.999zm-2.645-1.798h1.264v7.362c0 .251.039.44.117.567a.551.551 0 0 0 .3.253c.124.041.256.062.397.062.105 0 .214-.009.328-.028.119-.022.207-.041.267-.054l.007 1.032a2.924 2.924 0 0 1-.397.089 3 3 0 0 1-.581.048c-.31 0-.595-.062-.855-.185a1.378 1.378 0 0 1-.622-.615c-.15-.292-.225-.684-.225-1.176v-7.355zm3.657 5.578v-.157c0-.534.078-1.028.232-1.484.155-.46.379-.859.67-1.196a2.99 2.99 0 0 1 1.06-.793c.415-.192.88-.287 1.395-.287.519 0 .986.095 1.401.287.419.187.775.451 1.066.793.297.337.522.736.677 1.196.155.456.232.95.232 1.484v.157c0 .533-.077 1.027-.232 1.483-.155.456-.38.855-.677 1.196a3.084 3.084 0 0 1-1.059.793c-.41.187-.875.281-1.395.281-.519 0-.986-.094-1.401-.281a3.163 3.163 0 0 1-1.067-.793 3.614 3.614 0 0 1-.67-1.196 4.606 4.606 0 0 1-.232-1.483zm1.265-.157v.157c0 .369.043.718.13 1.046.086.323.216.61.389.861.178.251.399.449.663.595.265.141.572.212.923.212.347 0 .65-.071.909-.212.265-.146.483-.344.657-.595a2.75 2.75 0 0 0 .389-.861c.091-.328.137-.677.137-1.046v-.157c0-.365-.046-.709-.137-1.033a2.643 2.643 0 0 0-.396-.868 1.877 1.877 0 0 0-.656-.601 1.842 1.842 0 0 0-.916-.219c-.347 0-.652.073-.917.219a1.968 1.968 0 0 0-.656.601c-.173.251-.303.54-.389.868-.087.324-.13.668-.13 1.033zM249.851 291.5h-1.265v-8.176c0-.533.096-.982.287-1.346a1.92 1.92 0 0 1 .841-.834c.364-.192.797-.288 1.299-.288a3.562 3.562 0 0 1 .875.11l-.069 1.032a2.042 2.042 0 0 0-.328-.048 4.679 4.679 0 0 0-.355-.013c-.269 0-.502.054-.698.164a1.025 1.025 0 0 0-.437.464c-.1.206-.15.458-.15.759v8.176zm1.572-7.396v.97h-4.006v-.97h4.006zm4.313 7.533c-.515 0-.982-.087-1.401-.26a3.17 3.17 0 0 1-1.073-.745 3.307 3.307 0 0 1-.684-1.135 4.17 4.17 0 0 1-.239-1.435v-.288c0-.601.089-1.137.266-1.606.178-.474.42-.875.725-1.203a3.097 3.097 0 0 1 1.039-.745 2.982 2.982 0 0 1 1.203-.253c.529 0 .985.091 1.367.273.388.183.705.438.951.766.246.323.428.706.547 1.148.118.438.177.916.177 1.436v.567h-5.523v-1.032h4.259v-.096a3.194 3.194 0 0 0-.205-.957 1.721 1.721 0 0 0-.547-.765c-.251-.201-.593-.301-1.026-.301a1.723 1.723 0 0 0-1.415.718 2.692 2.692 0 0 0-.403.868 4.387 4.387 0 0 0-.144 1.182v.288c0 .35.048.681.144.991.1.305.244.574.431.806.191.233.421.415.69.547.273.132.583.198.93.198.446 0 .825-.091 1.134-.273.31-.182.582-.426.814-.731l.766.608c-.16.242-.363.472-.609.69a2.904 2.904 0 0 1-.909.534c-.355.136-.777.205-1.265.205zm9.017-1.573V281h1.271v10.5h-1.162l-.109-1.436zm-4.977-2.18v-.144c0-.565.069-1.078.205-1.538.142-.465.34-.863.595-1.196.26-.333.568-.588.923-.766.36-.182.761-.273 1.203-.273.465 0 .871.082 1.217.246.351.159.647.394.889.704.246.305.439.674.581 1.107.141.433.239.923.294 1.47v.629a6.485 6.485 0 0 1-.294 1.463 3.46 3.46 0 0 1-.581 1.107c-.242.306-.538.54-.889.704-.351.16-.761.24-1.231.24-.432 0-.829-.094-1.189-.281a2.795 2.795 0 0 1-.923-.786 3.844 3.844 0 0 1-.595-1.189 5.26 5.26 0 0 1-.205-1.497zm1.272-.144v.144c0 .369.036.715.109 1.039.078.323.196.608.356.854.159.246.362.44.608.581.246.137.54.205.882.205.419 0 .763-.088 1.032-.266.274-.178.492-.413.656-.704a4.08 4.08 0 0 0 .383-.95v-1.648a3.573 3.573 0 0 0-.239-.724 2.203 2.203 0 0 0-.397-.629 1.714 1.714 0 0 0-.594-.445 1.934 1.934 0 0 0-.827-.164 1.75 1.75 0 0 0-.896.219 1.735 1.735 0 0 0-.608.588c-.16.246-.278.533-.356.861-.073.324-.109.67-.109 1.039zm10.014 3.897c-.514 0-.982-.087-1.401-.26a3.179 3.179 0 0 1-1.073-.745 3.323 3.323 0 0 1-.684-1.135 4.17 4.17 0 0 1-.239-1.435v-.288c0-.601.089-1.137.267-1.606.177-.474.419-.875.724-1.203a3.107 3.107 0 0 1 1.039-.745 2.982 2.982 0 0 1 1.203-.253c.529 0 .985.091 1.368.273.387.183.704.438.95.766.246.323.428.706.547 1.148.118.438.177.916.177 1.436v.567h-5.523v-1.032h4.259v-.096a3.163 3.163 0 0 0-.205-.957 1.721 1.721 0 0 0-.547-.765c-.251-.201-.593-.301-1.026-.301a1.723 1.723 0 0 0-1.415.718 2.692 2.692 0 0 0-.403.868 4.39 4.39 0 0 0-.143 1.182v.288c0 .35.047.681.143.991.1.305.244.574.431.806.191.233.421.415.69.547.274.132.584.198.93.198.446 0 .825-.091 1.135-.273a2.8 2.8 0 0 0 .813-.731l.766.608c-.16.242-.363.472-.609.69a2.904 2.904 0 0 1-.909.534c-.355.136-.777.205-1.265.205zm5.62-6.371v6.234h-1.265v-7.396h1.23l.035 1.162zm2.31-1.204l-.007 1.176a1.84 1.84 0 0 0-.3-.041 3.267 3.267 0 0 0-.315-.013 2.03 2.03 0 0 0-.772.136 1.597 1.597 0 0 0-.568.383c-.155.164-.278.36-.369.588a2.87 2.87 0 0 0-.171.738l-.355.205c0-.446.043-.866.13-1.257.091-.392.23-.739.417-1.039.186-.306.423-.543.711-.711.291-.174.638-.26 1.039-.26.091 0 .196.011.314.034a.948.948 0 0 1 .246.061zm5.257 6.173v-3.807c0-.292-.059-.545-.178-.759a1.166 1.166 0 0 0-.519-.506c-.233-.118-.52-.178-.862-.178a2.02 2.02 0 0 0-.84.164c-.237.11-.424.253-.561.431a.945.945 0 0 0-.198.574h-1.265c0-.264.069-.526.205-.786.137-.26.333-.494.588-.704.26-.214.57-.383.93-.506.364-.127.77-.191 1.217-.191.537 0 1.011.091 1.422.273.414.183.738.458.97.827.237.365.356.823.356 1.374v3.446c0 .246.02.508.061.786.046.278.112.517.198.718v.109h-1.319a2.343 2.343 0 0 1-.15-.581 4.615 4.615 0 0 1-.055-.684zm.219-3.219l.013.888h-1.278c-.36 0-.681.03-.964.089a2.22 2.22 0 0 0-.711.253 1.205 1.205 0 0 0-.437.431c-.1.168-.151.367-.151.594 0 .233.053.445.158.636.104.192.262.344.471.458.215.11.477.164.786.164.388 0 .73-.082 1.026-.246.296-.164.531-.364.704-.601.178-.237.273-.467.287-.691l.54.609a1.822 1.822 0 0 1-.26.635 3.06 3.06 0 0 1-1.401 1.197 2.73 2.73 0 0 1-1.08.205c-.501 0-.941-.098-1.319-.294a2.25 2.25 0 0 1-.875-.786 2.074 2.074 0 0 1-.308-1.115c0-.396.077-.745.232-1.046.155-.305.379-.558.67-.758.292-.205.643-.36 1.053-.465.41-.105.868-.157 1.374-.157h1.47zm4.409-6.016v10.5h-1.272V281h1.272zm9.242 5.845h-2.522l-.014-1.06h2.29c.378 0 .709-.064.991-.191a1.5 1.5 0 0 0 .657-.547c.159-.242.239-.529.239-.861 0-.365-.071-.661-.212-.889a1.173 1.173 0 0 0-.636-.506c-.282-.109-.642-.164-1.08-.164h-1.941v8.873h-1.32v-9.953h3.261c.51 0 .966.052 1.367.157.401.1.741.26 1.019.479.282.214.497.487.642.82.146.333.219.731.219 1.196 0 .41-.105.782-.314 1.114-.21.329-.502.597-.875.807-.369.21-.802.344-1.299.403l-.472.322zm-.061 4.655h-2.981l.745-1.073h2.236c.419 0 .774-.073 1.066-.219.296-.146.522-.351.677-.615a1.87 1.87 0 0 0 .232-.95c0-.37-.066-.689-.198-.957a1.374 1.374 0 0 0-.622-.623c-.283-.145-.647-.218-1.094-.218h-1.88l.014-1.06h2.57l.281.383c.478.041.884.178 1.216.41.333.228.586.52.759.875.178.356.267.748.267 1.176 0 .62-.137 1.144-.41 1.572-.269.424-.65.748-1.142.971-.492.219-1.071.328-1.736.328zm6.309-6.234v6.234h-1.264v-7.396h1.23l.034 1.162zm2.311-1.204l-.007 1.176a1.852 1.852 0 0 0-.301-.041 3.245 3.245 0 0 0-.314-.013 2.04 2.04 0 0 0-.773.136 1.602 1.602 0 0 0-.567.383c-.155.164-.278.36-.369.588a2.79 2.79 0 0 0-.171.738l-.356.205c0-.446.044-.866.13-1.257.091-.392.23-.739.417-1.039.187-.306.424-.543.711-.711.292-.174.638-.26 1.039-.26.091 0 .196.011.315.034.118.018.2.039.246.061zm5.257 6.173v-3.807c0-.292-.06-.545-.178-.759a1.163 1.163 0 0 0-.52-.506c-.232-.118-.519-.178-.861-.178-.319 0-.599.055-.841.164a1.46 1.46 0 0 0-.56.431.94.94 0 0 0-.199.574h-1.264c0-.264.068-.526.205-.786.137-.26.332-.494.588-.704a2.93 2.93 0 0 1 .929-.506 3.686 3.686 0 0 1 1.217-.191c.538 0 1.012.091 1.422.273.415.183.738.458.971.827.237.365.355.823.355 1.374v3.446c0 .246.021.508.062.786.045.278.111.517.198.718v.109h-1.319a2.383 2.383 0 0 1-.151-.581 4.745 4.745 0 0 1-.054-.684zm.218-3.219l.014.888h-1.278c-.36 0-.682.03-.964.089-.283.055-.52.139-.711.253a1.208 1.208 0 0 0-.438.431c-.1.168-.15.367-.15.594 0 .233.052.445.157.636.105.192.262.344.472.458.214.11.476.164.786.164.387 0 .729-.082 1.025-.246.297-.164.531-.364.705-.601.177-.237.273-.467.287-.691l.54.609a1.842 1.842 0 0 1-.26.635 3.09 3.09 0 0 1-1.401 1.197c-.319.136-.68.205-1.081.205-.501 0-.941-.098-1.319-.294a2.257 2.257 0 0 1-.875-.786 2.083 2.083 0 0 1-.308-1.115c0-.396.078-.745.233-1.046.155-.305.378-.558.67-.758.292-.205.642-.36 1.053-.465.41-.105.868-.157 1.374-.157h1.469zm7.342 2.522c0-.182-.041-.351-.123-.506-.077-.159-.239-.303-.485-.43-.242-.133-.606-.247-1.094-.342a8.618 8.618 0 0 1-1.114-.308 3.347 3.347 0 0 1-.841-.431 1.794 1.794 0 0 1-.526-.594 1.65 1.65 0 0 1-.185-.8c0-.292.064-.567.191-.827.133-.26.317-.49.554-.691.242-.2.531-.357.868-.471a3.506 3.506 0 0 1 1.128-.171c.593 0 1.098.105 1.518.314.419.21.74.49.964.841.223.346.335.732.335 1.155h-1.265c0-.205-.062-.403-.185-.594a1.365 1.365 0 0 0-.526-.486c-.228-.127-.508-.191-.841-.191-.351 0-.636.055-.854.164a1.093 1.093 0 0 0-.472.403 1.013 1.013 0 0 0-.075.889.81.81 0 0 0 .26.294c.123.086.296.168.519.246.223.077.508.155.855.232.606.137 1.105.301 1.497.493.392.191.683.426.875.704.191.278.287.615.287 1.011a1.97 1.97 0 0 1-.786 1.586 2.873 2.873 0 0 1-.903.451 4.022 4.022 0 0 1-1.169.158c-.651 0-1.203-.116-1.654-.349-.451-.232-.793-.533-1.025-.902a2.155 2.155 0 0 1-.349-1.169h1.272c.018.346.118.622.3.827.183.2.406.344.67.431.265.082.527.123.786.123.347 0 .636-.046.869-.137.236-.091.417-.217.54-.376a.872.872 0 0 0 .184-.547zm4.293-5.434v7.396h-1.265v-7.396h1.265zm-1.306-1.081l1.327-2.009h1.524l-1.832 2.009h-1.019zm4.786-2.023v10.5h-1.272V281h1.272zm3.404 3.104v7.396H329.4v-7.396h1.272zm-1.367-1.962c0-.205.061-.379.184-.52.128-.141.315-.212.561-.212.241 0 .426.071.554.212a.733.733 0 0 1 .198.52.713.713 0 0 1-.198.505c-.128.137-.313.206-.554.206-.246 0-.433-.069-.561-.206a.742.742 0 0 1-.184-.505zm7.758 8.093v-3.807c0-.292-.059-.545-.177-.759a1.163 1.163 0 0 0-.52-.506c-.232-.118-.519-.178-.861-.178-.319 0-.599.055-.841.164a1.46 1.46 0 0 0-.56.431.94.94 0 0 0-.199.574h-1.264c0-.264.068-.526.205-.786a2.28 2.28 0 0 1 .588-.704 2.93 2.93 0 0 1 .929-.506c.365-.127.77-.191 1.217-.191.538 0 1.012.091 1.422.273.415.183.738.458.971.827.237.365.355.823.355 1.374v3.446c0 .246.021.508.062.786.045.278.111.517.198.718v.109h-1.319a2.383 2.383 0 0 1-.151-.581 4.754 4.754 0 0 1-.055-.684zm.219-3.219l.014.888h-1.278c-.36 0-.682.03-.964.089-.283.055-.52.139-.711.253a1.208 1.208 0 0 0-.438.431c-.1.168-.15.367-.15.594 0 .233.052.445.157.636.105.192.262.344.472.458.214.11.476.164.786.164.387 0 .729-.082 1.025-.246.297-.164.531-.364.704-.601.178-.237.274-.467.288-.691l.54.609a1.842 1.842 0 0 1-.26.635 3.019 3.019 0 0 1-.568.67 3.06 3.06 0 0 1-.834.527 2.73 2.73 0 0 1-1.08.205c-.501 0-.941-.098-1.319-.294a2.257 2.257 0 0 1-.875-.786 2.083 2.083 0 0 1-.308-1.115c0-.396.078-.745.233-1.046.155-.305.378-.558.67-.758a3.18 3.18 0 0 1 1.052-.465 5.555 5.555 0 0 1 1.374-.157h1.47z" fill="#66716E"/></g></g><defs><filter id="c" x="218" y="239" width="153" height="83" filterUnits="userSpaceOnUse" color-interpolation-filters="sRGB"><feFlood flood-opacity="0" result="BackgroundImageFix"/><feColorMatrix in="SourceAlpha" values="0 0 0 0 0 0 0 0 0 0 0 0 0 0 0 0 0 0 127 0" result="hardAlpha"/><feOffset dy="4"/><feGaussianBlur stdDeviation="6"/><feComposite in2="hardAlpha" operator="out"/><feColorMatrix values="0 0 0 0 0 0 0 0 0 0 0 0 0 0 0 0 0 0 0.15 0"/><feBlend in2="BackgroundImageFix" result="effect1_dropShadow_612_237"/><feBlend in="SourceGraphic" in2="effect1_dropShadow_612_237" result="shape"/></filter><clipPath id="a"><path fill="#fff" transform="translate(-146 -92)" d="M0 0h623v1003H0z"/></clipPath></defs></svg>